<?xml version="1.0" encoding="utf-8"?>
<!-- Generator: Adobe Illustrator 17.0.0, SVG Export Plug-In . SVG Version: 6.00 Build 0)  -->
<!DOCTYPE svg PUBLIC "-//W3C//DTD SVG 1.1//EN" "http://www.w3.org/Graphics/SVG/1.1/DTD/svg11.dtd">
<svg version="1.1" id="_x31_2-Column_Grid" xmlns="http://www.w3.org/2000/svg" xmlns:xlink="http://www.w3.org/1999/xlink" x="0px"
	 y="0px" width="900px" height="2024px" viewBox="549.5 1230.5 900 2024" enable-background="new 549.5 1230.5 900 2024"
	 xml:space="preserve">
<rect x="549.5" y="1290.5" fill="#FFFFFF" width="900" height="1915"/>
<g>
	<g>
		<path fill="#F7C1B2" d="M682.6,1345.571h5.365c1.44,0,2.575,0.414,3.295,1.116c0.522,0.54,0.81,1.207,0.81,2.017v0.036
			c0,1.638-1.008,2.485-1.999,2.917c1.494,0.45,2.701,1.314,2.701,3.043v0.036c0,2.161-1.818,3.439-4.573,3.439h-5.6L682.6,1345.571
			L682.6,1345.571z M687.732,1351.189c1.71,0,2.899-0.774,2.899-2.251v-0.036c0-1.242-0.99-2.053-2.791-2.053h-3.835v4.339
			L687.732,1351.189L687.732,1351.189z M688.235,1356.897c1.909,0,3.097-0.846,3.097-2.251v-0.036c0-1.368-1.152-2.161-3.349-2.161
			h-3.979v4.448H688.235z"/>
		<path fill="#F7C1B2" d="M695.217,1354.646v-5.78h1.387v5.438c0,1.729,0.936,2.809,2.575,2.809c1.584,0,2.791-1.17,2.791-2.917
			v-5.33h1.369v9.309h-1.369v-1.62c-0.63,1.008-1.584,1.818-3.187,1.818C696.531,1358.373,695.217,1356.86,695.217,1354.646z"/>
		<path fill="#F7C1B2" d="M705.675,1356.987l0.702-0.99c1.008,0.756,2.125,1.188,3.223,1.188c1.117,0,1.927-0.576,1.927-1.477
			v-0.036c0-0.936-1.098-1.296-2.323-1.639c-1.458-0.414-3.079-0.918-3.079-2.629v-0.036c0-1.603,1.333-2.665,3.169-2.665
			c1.135,0,2.395,0.396,3.349,1.026l-0.63,1.044c-0.864-0.558-1.855-0.9-2.755-0.9c-1.099,0-1.801,0.576-1.801,1.351v0.036
			c0,0.882,1.152,1.224,2.395,1.603c1.44,0.432,2.989,0.99,2.989,2.665v0.036c0,1.765-1.458,2.791-3.313,2.791
			C708.195,1358.355,706.719,1357.833,705.675,1356.987z"/>
		<path fill="#F7C1B2" d="M715.449,1345.301h1.584v1.53h-1.584V1345.301z M715.539,1348.866h1.387v9.309h-1.387V1348.866z"/>
		<path fill="#F7C1B2" d="M720.147,1348.866h1.387v1.621c0.612-1.008,1.584-1.819,3.187-1.819c2.25,0,3.565,1.512,3.565,3.727v5.78
			h-1.387v-5.438c0-1.729-0.936-2.809-2.575-2.809c-1.603,0-2.791,1.17-2.791,2.917v5.33h-1.387L720.147,1348.866L720.147,1348.866z
			"/>
		<path fill="#F7C1B2" d="M735.34,1357.185c1.278,0,2.179-0.522,2.935-1.314l0.864,0.774c-0.936,1.044-2.07,1.747-3.835,1.747
			c-2.557,0-4.646-1.963-4.646-4.861c0-2.701,1.891-4.862,4.465-4.862c2.755,0,4.339,2.197,4.339,4.933c0,0.126,0,0.27-0.018,0.486
			h-7.382C732.261,1356.05,733.701,1357.185,735.34,1357.185z M738.06,1352.971c-0.162-1.692-1.134-3.133-2.971-3.133
			c-1.602,0-2.827,1.332-3.024,3.133H738.06z"/>
		<path fill="#F7C1B2" d="M741.116,1356.987l0.702-0.99c1.008,0.756,2.125,1.188,3.223,1.188c1.117,0,1.927-0.576,1.927-1.477
			v-0.036c0-0.936-1.098-1.296-2.323-1.639c-1.458-0.414-3.079-0.918-3.079-2.629v-0.036c0-1.603,1.333-2.665,3.169-2.665
			c1.135,0,2.395,0.396,3.349,1.026l-0.63,1.044c-0.864-0.558-1.855-0.9-2.755-0.9c-1.099,0-1.801,0.576-1.801,1.351v0.036
			c0,0.882,1.152,1.224,2.395,1.603c1.44,0.432,2.989,0.99,2.989,2.665v0.036c0,1.765-1.458,2.791-3.313,2.791
			C743.638,1358.355,742.161,1357.833,741.116,1356.987z"/>
		<path fill="#F7C1B2" d="M749.901,1356.987l0.702-0.99c1.008,0.756,2.125,1.188,3.223,1.188c1.117,0,1.927-0.576,1.927-1.477
			v-0.036c0-0.936-1.098-1.296-2.323-1.639c-1.458-0.414-3.079-0.918-3.079-2.629v-0.036c0-1.603,1.333-2.665,3.169-2.665
			c1.135,0,2.395,0.396,3.349,1.026l-0.63,1.044c-0.864-0.558-1.855-0.9-2.755-0.9c-1.099,0-1.801,0.576-1.801,1.351v0.036
			c0,0.882,1.152,1.224,2.395,1.603c1.44,0.432,2.989,0.99,2.989,2.665v0.036c0,1.765-1.458,2.791-3.313,2.791
			C752.422,1358.355,750.944,1357.833,749.901,1356.987z"/>
		<path fill="#F7C1B2" d="M772.385,1356.392c-1.152,1.242-2.484,1.962-4.123,1.962c-2.269,0-3.961-1.422-3.961-3.529v-0.036
			c0-1.675,1.117-2.881,3.043-3.637c-0.864-1.008-1.26-1.782-1.26-2.773v-0.036c0-1.657,1.333-2.989,3.331-2.989
			c1.765,0,3.061,1.278,3.061,2.845v0.036c0,1.603-1.134,2.629-2.971,3.277l2.881,2.935c0.558-0.81,1.062-1.765,1.513-2.809
			l1.17,0.54c-0.558,1.188-1.134,2.269-1.819,3.169l2.197,2.251l-1.081,0.828L772.385,1356.392z M771.521,1355.51l-3.367-3.475
			c-1.675,0.612-2.413,1.639-2.413,2.701v0.036c0,1.351,1.081,2.377,2.629,2.377C769.558,1357.148,770.602,1356.518,771.521,1355.51
			z M771.142,1348.308v-0.036c0-1.008-0.756-1.746-1.783-1.746c-1.134,0-1.909,0.792-1.909,1.819v0.036
			c0,0.738,0.306,1.296,1.261,2.323C770.314,1350.162,771.142,1349.388,771.142,1348.308z"/>
		<path fill="#F7C1B2" d="M782.643,1351.909v-0.036c0-3.565,2.665-6.518,6.374-6.518c2.287,0,3.655,0.81,4.916,1.999l-0.972,1.044
			c-1.062-1.008-2.25-1.729-3.961-1.729c-2.791,0-4.879,2.269-4.879,5.167v0.036c0,2.917,2.107,5.204,4.879,5.204
			c1.729,0,2.863-0.666,4.069-1.818l0.937,0.918c-1.314,1.332-2.755,2.215-5.042,2.215
			C785.326,1358.391,782.643,1355.528,782.643,1351.909z"/>
		<path fill="#F7C1B2" d="M795.493,1353.565v-0.036c0-2.629,2.053-4.862,4.862-4.862c2.791,0,4.843,2.197,4.843,4.825v0.036
			c0,2.629-2.071,4.861-4.879,4.861C797.529,1358.391,795.493,1356.194,795.493,1353.565z M803.776,1353.565v-0.036
			c0-1.999-1.495-3.637-3.457-3.637c-2.017,0-3.403,1.638-3.403,3.601v0.036c0,1.999,1.477,3.619,3.439,3.619
			C802.372,1357.148,803.776,1355.528,803.776,1353.565z"/>
		<path fill="#F7C1B2" d="M807.175,1356.284h1.657v1.891h-1.657V1356.284z"/>
	</g>
</g>
<rect x="549.5" y="1230.5" fill="#2E464E" width="900" height="60"/>
<g>
	<circle fill="#F7C1B2" cx="639.979" cy="1352.479" r="25"/>
</g>
<rect x="1334.5" y="1347.5" fill="#F7C1B2" width="50" height="8"/>
<rect x="1269.5" y="1347.5" fill="#FEF3EF" width="49" height="8"/>
<rect x="1204.5" y="1347.5" fill="#FEF3EF" width="49" height="8"/>
<rect x="1138.5" y="1347.5" fill="#FEF3EF" width="49" height="8"/>
<rect x="1073.5" y="1347.5" fill="#FEF3EF" width="49" height="8"/>
<rect x="1007.5" y="1347.5" fill="#FEF3EF" width="49" height="8"/>
<rect x="549.5" y="1413.5" fill="#FBE6E0" width="900" height="491"/>
<rect x="680.5" y="1589.5" fill="#FEF3EF" width="114" height="17"/>
<rect x="811.5" y="1589.5" fill="#FEF3EF" width="180" height="17"/>
<rect x="1007.5" y="1589.5" fill="#FEF3EF" width="49" height="17"/>
<rect x="1073.5" y="1589.5" fill="#FEF3EF" width="114" height="17"/>
<rect x="1204.5" y="1589.5" fill="#FEF3EF" width="114" height="17"/>
<rect x="745.5" y="1622.5" fill="#FEF3EF" width="115" height="17"/>
<rect x="876.5" y="1622.5" fill="#FEF3EF" width="49" height="17"/>
<rect x="942.5" y="1622.5" fill="#FEF3EF" width="180" height="17"/>
<rect x="1138.5" y="1622.5" fill="#FEF3EF" width="115" height="17"/>
<g>
	<rect x="942.5" y="2047.5" fill="#FBE6E0" width="49" height="16"/>
	<rect x="1007.5" y="2047.5" fill="#FBE6E0" width="115" height="16"/>
	<rect x="1138.5" y="2047.5" fill="#FBE6E0" width="49" height="16"/>
	<rect x="1204.5" y="2047.5" fill="#FBE6E0" width="180" height="16"/>
	<rect x="942.5" y="2071.5" fill="#FBE6E0" width="114" height="17"/>
	<rect x="1073.5" y="2071.5" fill="#FBE6E0" width="180" height="17"/>
	<rect x="942.5" y="2104.5" fill="#FEF3EF" width="114" height="8"/>
	<rect x="1073.5" y="2104.5" fill="#FEF3EF" width="49" height="8"/>
	<rect x="1138.5" y="2104.5" fill="#FEF3EF" width="49" height="8"/>
	<rect x="1204.5" y="2104.5" fill="#FEF3EF" width="114" height="8"/>
	<rect x="942.5" y="2153.5" fill="#FEF3EF" width="49" height="8"/>
	<rect x="1204.5" y="2137.5" fill="#FEF3EF" width="49" height="8"/>
	<rect x="1007.5" y="2120.5" fill="#FEF3EF" width="90" height="9"/>
	<rect x="1269.5" y="2137.5" fill="#FEF3EF" width="49" height="8"/>
	<rect x="1269.5" y="2153.5" fill="#FEF3EF" width="25" height="8"/>
	<rect x="1007.5" y="2153.5" fill="#FEF3EF" width="115" height="8"/>
	<rect x="1138.5" y="2153.5" fill="#FEF3EF" width="115" height="8"/>
	<rect x="942.5" y="2137.5" fill="#FEF3EF" width="114" height="8"/>
	<rect x="1073.5" y="2137.5" fill="#FEF3EF" width="114" height="8"/>
	<rect x="942.5" y="2120.5" fill="#FEF3EF" width="49" height="9"/>
	<rect x="1114.5" y="2120.5" fill="#FEF3EF" width="179" height="9"/>
</g>
<g>
	<path fill="#F6B4A2" d="M705.1,1524.496h-7.699v-5.132h20.963v5.132h-7.698v20.168H705.1V1524.496z"/>
	<path fill="#F6B4A2" d="M724.176,1519.364h5.566v10.012h10.265v-10.012h5.566v25.3h-5.566v-10.156h-10.265v10.156h-5.566V1519.364
		L724.176,1519.364z"/>
	<path fill="#F6B4A2" d="M753.837,1519.364h19.084v4.952h-13.554v5.132h11.928v4.952h-11.928v5.313h13.735v4.952h-19.264
		L753.837,1519.364L753.837,1519.364z"/>
	<path fill="#F6B4A2" d="M793.226,1519.364h5.566v20.24h12.614v5.06h-18.179L793.226,1519.364L793.226,1519.364z"/>
	<path fill="#F6B4A2" d="M826.993,1519.183h5.132l10.843,25.481h-5.819l-2.313-5.674h-10.698l-2.313,5.674h-5.674L826.993,1519.183z
		 M832.848,1534.074l-3.362-8.205l-3.362,8.205H832.848z"/>
	<path fill="#F6B4A2" d="M848.623,1519.364h11.565c3.216,0,5.71,0.903,7.373,2.567c1.409,1.409,2.169,3.398,2.169,5.783v0.072
		c0,4.084-2.204,6.65-5.421,7.843l6.181,9.036h-6.506l-5.421-8.096h-4.373v8.096h-5.566L848.623,1519.364L848.623,1519.364z
		 M859.827,1531.652c2.711,0,4.265-1.445,4.265-3.578v-0.072c0-2.385-1.662-3.615-4.373-3.615h-5.53v7.264L859.827,1531.652
		L859.827,1531.652z"/>
	<path fill="#F6B4A2" d="M875.291,1532.086v-0.072c0-7.192,5.602-13.084,13.265-13.084c4.554,0,7.3,1.229,9.939,3.47l-3.506,4.229
		c-1.952-1.626-3.687-2.567-6.615-2.567c-4.048,0-7.264,3.578-7.264,7.88v0.072c0,4.626,3.18,8.024,7.662,8.024
		c2.025,0,3.831-0.506,5.241-1.518v-3.615h-5.602v-4.807h10.988v10.987c-2.603,2.204-6.181,4.012-10.807,4.012
		C880.712,1545.098,875.291,1539.568,875.291,1532.086z"/>
	<path fill="#F6B4A2" d="M907.063,1519.364h19.084v4.952h-13.554v5.132h11.928v4.952h-11.928v5.313h13.735v4.952h-19.264V1519.364z"
		/>
	<path fill="#F6B4A2" d="M944.717,1540.977l3.289-3.94c2.277,1.879,4.663,3.073,7.554,3.073c2.277,0,3.651-0.903,3.651-2.385v-0.072
		c0-1.409-0.867-2.133-5.096-3.217c-5.096-1.301-8.385-2.71-8.385-7.735v-0.072c0-4.59,3.687-7.627,8.855-7.627
		c3.687,0,6.831,1.156,9.397,3.217l-2.892,4.193c-2.24-1.554-4.446-2.493-6.578-2.493c-2.133,0-3.253,0.976-3.253,2.204v0.072
		c0,1.662,1.084,2.204,5.458,3.325c5.132,1.337,8.024,3.181,8.024,7.59v0.072c0,5.024-3.831,7.843-9.289,7.843
		C951.62,1545.025,947.753,1543.688,944.717,1540.977z"/>
	<path fill="#F6B4A2" d="M970.081,1532.086v-0.072c0-7.192,5.421-13.084,13.193-13.084c4.771,0,7.627,1.59,9.975,3.904l-3.542,4.084
		c-1.952-1.771-3.94-2.856-6.47-2.856c-4.265,0-7.337,3.542-7.337,7.88v0.072c0,4.337,2.999,7.952,7.337,7.952
		c2.892,0,4.662-1.156,6.65-2.964l3.542,3.578c-2.602,2.783-5.494,4.518-10.373,4.518
		C975.611,1545.098,970.081,1539.351,970.081,1532.086z"/>
	<path fill="#F6B4A2" d="M999.536,1519.364h11.565c3.216,0,5.711,0.903,7.373,2.567c1.409,1.409,2.169,3.398,2.169,5.783v0.072
		c0,4.084-2.204,6.65-5.421,7.843l6.181,9.036h-6.506l-5.421-8.096h-4.373v8.096h-5.566L999.536,1519.364L999.536,1519.364z
		 M1010.74,1531.652c2.711,0,4.265-1.445,4.265-3.578v-0.072c0-2.385-1.662-3.615-4.373-3.615h-5.53v7.264L1010.74,1531.652
		L1010.74,1531.652L1010.74,1531.652z"/>
	<path fill="#F6B4A2" d="M1027.806,1519.364h19.084v4.952h-13.554v5.132h11.928v4.952h-11.928v5.313h13.735v4.952h-19.264V1519.364z
		"/>
	<path fill="#F6B4A2" d="M1054.374,1519.364h19.084v4.952h-13.554v5.132h11.928v4.952h-11.928v5.313h13.735v4.952h-19.264V1519.364z
		"/>
	<path fill="#F6B4A2" d="M1080.941,1519.364h5.133l11.855,15.578v-15.578h5.494v25.3h-4.735l-12.252-16.083v16.083h-5.495V1519.364
		L1080.941,1519.364z"/>
	<path fill="#F6B4A2" d="M1122.498,1519.364h6.145l6.615,17.819l6.615-17.819h6l-10.229,25.481h-4.915L1122.498,1519.364z"/>
	<path fill="#F6B4A2" d="M1153.525,1519.364h19.084v4.952h-13.554v5.132h11.927v4.952h-11.927v5.313h13.735v4.952h-19.265V1519.364
		L1153.525,1519.364z"/>
	<path fill="#F6B4A2" d="M1180.093,1519.364h11.566c3.217,0,5.711,0.903,7.374,2.567c1.409,1.409,2.168,3.398,2.168,5.783v0.072
		c0,4.084-2.204,6.65-5.421,7.843l6.181,9.036h-6.506l-5.421-8.096h-4.373v8.096h-5.567L1180.093,1519.364L1180.093,1519.364z
		 M1191.297,1531.652c2.71,0,4.265-1.445,4.265-3.578v-0.072c0-2.385-1.663-3.615-4.373-3.615h-5.53v7.264L1191.297,1531.652
		L1191.297,1531.652L1191.297,1531.652z"/>
	<path fill="#F6B4A2" d="M1206.345,1540.977l3.288-3.94c2.277,1.879,4.662,3.073,7.553,3.073c2.277,0,3.651-0.903,3.651-2.385
		v-0.072c0-1.409-0.868-2.133-5.096-3.217c-5.097-1.301-8.385-2.71-8.385-7.735v-0.072c0-4.59,3.687-7.627,8.855-7.627
		c3.686,0,6.831,1.156,9.397,3.217l-2.891,4.193c-2.24-1.554-4.446-2.493-6.579-2.493s-3.253,0.976-3.253,2.204v0.072
		c0,1.662,1.085,2.204,5.458,3.325c5.132,1.337,8.023,3.181,8.023,7.59v0.072c0,5.024-3.83,7.843-9.289,7.843
		C1213.249,1545.025,1209.382,1543.688,1206.345,1540.977z"/>
	<path fill="#F6B4A2" d="M1233.394,1519.364h5.567v25.3h-5.567V1519.364z"/>
	<path fill="#F6B4A2" d="M1245.98,1532.086v-0.072c0-7.192,5.674-13.084,13.482-13.084c7.807,0,13.409,5.819,13.409,13.012v0.072
		c0,7.193-5.674,13.084-13.481,13.084C1251.583,1545.098,1245.98,1539.279,1245.98,1532.086z M1267.052,1532.086v-0.072
		c0-4.337-3.18-7.952-7.662-7.952s-7.59,3.542-7.59,7.88v0.072c0,4.337,3.181,7.952,7.663,7.952
		S1267.052,1536.423,1267.052,1532.086z"/>
	<path fill="#F6B4A2" d="M1279.117,1519.364h5.133l11.855,15.578v-15.578h5.494v25.3h-4.735l-12.252-16.083v16.083h-5.495V1519.364
		L1279.117,1519.364z"/>
</g>
<circle fill="#FBE6E0" cx="737.682" cy="2104.591" r="122.727"/>
<rect x="549.5" y="2313.5" fill="#FEF3EF" width="900" height="409"/>
<rect x="811.5" y="2533.5" fill="#FFFFFF" width="114" height="8"/>
<rect x="942.5" y="2533.5" fill="#FFFFFF" width="49" height="8"/>
<rect x="1007.5" y="2533.5" fill="#FFFFFF" width="115" height="8"/>
<rect x="1138.5" y="2533.5" fill="#FFFFFF" width="49" height="8"/>
<rect x="876.5" y="2549.5" fill="#FFFFFF" width="180" height="8"/>
<rect x="1073.5" y="2549.5" fill="#FFFFFF" width="49" height="8"/>
<rect x="811.5" y="2476.5" fill="#FBE6E0" width="114" height="16"/>
<rect x="942.5" y="2476.5" fill="#FBE6E0" width="49" height="16"/>
<rect x="1007.5" y="2476.5" fill="#FBE6E0" width="180" height="16"/>
<rect x="745.5" y="2500.5" fill="#FBE6E0" width="115" height="16"/>
<rect x="876.5" y="2500.5" fill="#FBE6E0" width="180" height="16"/>
<rect x="1073.5" y="2500.5" fill="#FBE6E0" width="49" height="16"/>
<rect x="1138.5" y="2500.5" fill="#FBE6E0" width="115" height="16"/>
<circle fill="#FEF3EF" cx="672.227" cy="2849.136" r="57.273"/>
<circle fill="#FEF3EF" cx="835.864" cy="2849.136" r="57.273"/>
<circle fill="#FEF3EF" cx="999.5" cy="2849.136" r="57.273"/>
<circle fill="#FEF3EF" cx="1163.136" cy="2849.136" r="57.273"/>
<circle fill="#FEF3EF" cx="1326.773" cy="2849.136" r="57.273"/>
<rect x="549.5" y="3016.5" fill="#FBE6E0" width="900" height="205"/>
<rect x="549.5" y="3221.5" fill="#F7C1B2" width="900" height="33"/>
<rect x="614.5" y="3090.5" fill="#FEF3EF" width="115" height="8"/>
<rect x="745.5" y="3090.5" fill="#FEF3EF" width="49" height="8"/>
<rect x="745.5" y="3139.5" fill="#FEF3EF" width="25" height="8"/>
<rect x="681.5" y="3106.5" fill="#FEF3EF" width="89" height="9"/>
<rect x="614.5" y="3106.5" fill="#FEF3EF" width="50" height="9"/>
<rect x="614.5" y="3123.5" fill="#FEF3EF" width="180" height="8"/>
<rect x="614.5" y="3139.5" fill="#FEF3EF" width="115" height="8"/>
<rect x="614.5" y="2928.5" fill="#FBE6E0" width="115" height="8"/>
<rect x="778.5" y="2928.5" fill="#FBE6E0" width="115" height="8"/>
<rect x="942.5" y="2928.5" fill="#FBE6E0" width="114" height="8"/>
<rect x="1105.5" y="2928.5" fill="#FBE6E0" width="115" height="8"/>
<rect x="1269.5" y="2928.5" fill="#FBE6E0" width="115" height="8"/>
<rect x="1204.5" y="3090.5" fill="#FEF3EF" width="114" height="8"/>
<rect x="1334.5" y="3090.5" fill="#FEF3EF" width="50" height="8"/>
<rect x="1334.5" y="3139.5" fill="#FEF3EF" width="25" height="8"/>
<rect x="1334.5" y="3106.5" fill="#FEF3EF" width="25" height="9"/>
<rect x="1204.5" y="3106.5" fill="#FEF3EF" width="114" height="9"/>
<rect x="1204.5" y="3090.5" fill="#FEF3EF" width="175" height="8"/>
<rect x="1269.5" y="3123.5" fill="#FEF3EF" width="115" height="8"/>
<rect x="1204.5" y="3123.5" fill="#FEF3EF" width="49" height="8"/>
<rect x="1204.5" y="3139.5" fill="#FEF3EF" width="114" height="8"/>
<rect x="614.5" y="3233.5" fill="#FEF3EF" width="115" height="8"/>
<rect x="745.5" y="3233.5" fill="#FEF3EF" width="49" height="8"/>
<rect x="1230.5" y="3233.5" fill="#FEF3EF" width="154" height="8"/>
<rect x="876.5" y="3090.5" fill="#FEF3EF" width="49" height="8"/>
<rect x="876.5" y="3139.5" fill="#FEF3EF" width="49" height="8"/>
<rect x="942.5" y="3090.5" fill="#FEF3EF" width="49" height="8"/>
<rect x="1073.5" y="3106.5" fill="#FEF3EF" width="24" height="9"/>
<rect x="1007.5" y="3090.5" fill="#FEF3EF" width="115" height="8"/>
<rect x="876.5" y="3106.5" fill="#FEF3EF" width="180" height="9"/>
<rect x="876.5" y="3123.5" fill="#FEF3EF" width="115" height="8"/>
<rect x="1007.5" y="3123.5" fill="#FEF3EF" width="115" height="8"/>
<rect x="942.5" y="3139.5" fill="#FEF3EF" width="155" height="8"/>
<g>
	<path fill="#FFFFFF" d="M1121.5,1765c0,15.74-12.76,28.5-28.5,28.5H905c-15.74,0-28.5-12.76-28.5-28.5l0,0
		c0-15.74,12.76-28.5,28.5-28.5h188C1108.74,1736.5,1121.5,1749.26,1121.5,1765L1121.5,1765z"/>
</g>
<rect x="942.5" y="1760.5" fill="#FBE6E0" width="114" height="9"/>
<g opacity="0.2">
	<path fill="#FFFFFF" d="M1377.5,1272.5c0,0.55-0.45,1-1,1h-748c-0.55,0-1-0.45-1-1v-24c0-0.55,0.45-1,1-1h748c0.55,0,1,0.45,1,1
		V1272.5z"/>
</g>
<circle opacity="0.2" fill="#FFFFFF" enable-background="new    " cx="576.5" cy="1260.5" r="7"/>
<circle opacity="0.2" fill="#FFFFFF" enable-background="new    " cx="600.5" cy="1260.5" r="7"/>
<g opacity="0.7">
	<path fill="#FFFFFF" d="M636.9,1262.257c0.031,0.352,0.121,0.621,0.27,0.809c0.271,0.34,0.741,0.51,1.411,0.51
		c0.398,0,0.749-0.085,1.052-0.255c0.304-0.17,0.455-0.433,0.455-0.788c0-0.27-0.121-0.475-0.363-0.615
		c-0.154-0.086-0.461-0.186-0.917-0.299l-0.852-0.211c-0.544-0.133-0.944-0.281-1.202-0.445c-0.461-0.285-0.691-0.68-0.691-1.184
		c0-0.594,0.217-1.074,0.65-1.441c0.433-0.367,1.016-0.551,1.748-0.551c0.959,0,1.649,0.277,2.072,0.832
		c0.266,0.352,0.395,0.73,0.387,1.137h-0.996c-0.02-0.237-0.105-0.453-0.258-0.647c-0.248-0.276-0.678-0.414-1.289-0.414
		c-0.408,0-0.717,0.076-0.928,0.228c-0.209,0.152-0.314,0.353-0.314,0.602c0,0.272,0.138,0.49,0.414,0.654
		c0.158,0.097,0.394,0.183,0.704,0.257l0.71,0.17c0.772,0.184,1.29,0.361,1.553,0.533c0.41,0.27,0.615,0.693,0.615,1.271
		c0,0.559-0.215,1.041-0.644,1.447c-0.429,0.406-1.083,0.609-1.961,0.609c-0.944,0-1.614-0.212-2.008-0.636
		c-0.394-0.424-0.604-0.948-0.632-1.573H636.9L636.9,1262.257z"/>
	<path fill="#FFFFFF" d="M642.467,1256.198h1.066v1.752h1.002v0.861h-1.002v4.096c0,0.219,0.074,0.365,0.223,0.439
		c0.082,0.043,0.219,0.064,0.41,0.064c0.051,0,0.105-0.001,0.164-0.004c0.059-0.002,0.127-0.009,0.205-0.02v0.838
		c-0.121,0.035-0.248,0.061-0.379,0.076c-0.131,0.015-0.271,0.023-0.424,0.023c-0.492,0-0.826-0.126-1.002-0.378
		c-0.176-0.252-0.264-0.579-0.264-0.981v-4.154h-0.85v-0.861h0.85L642.467,1256.198L642.467,1256.198z"/>
	<path fill="#FFFFFF" d="M650.007,1258.577c0.555,0.539,0.832,1.331,0.832,2.376c0,1.011-0.245,1.846-0.733,2.506
		c-0.488,0.659-1.246,0.989-2.274,0.989c-0.857,0-1.538-0.292-2.042-0.875c-0.505-0.583-0.757-1.367-0.757-2.351
		c0-1.054,0.266-1.893,0.797-2.518c0.532-0.624,1.245-0.937,2.142-0.937C648.773,1257.769,649.452,1258.038,650.007,1258.577z
		 M649.352,1262.747c0.258-0.528,0.386-1.117,0.386-1.765c0-0.585-0.093-1.061-0.278-1.428c-0.293-0.577-0.799-0.866-1.518-0.866
		c-0.638,0-1.102,0.246-1.391,0.737c-0.289,0.492-0.435,1.085-0.435,1.779c0,0.667,0.146,1.223,0.435,1.668
		c0.289,0.444,0.749,0.667,1.379,0.667C648.621,1263.54,649.096,1263.276,649.352,1262.747z"/>
	<path fill="#FFFFFF" d="M652.027,1257.979h1.031v0.832c0.212-0.285,0.443-0.506,0.693-0.662c0.357-0.234,0.775-0.352,1.258-0.352
		c0.713,0,1.317,0.272,1.814,0.817c0.498,0.545,0.746,1.323,0.746,2.335c0,1.367-0.358,2.344-1.076,2.93
		c-0.455,0.371-0.984,0.557-1.588,0.557c-0.475,0-0.873-0.104-1.194-0.311c-0.188-0.117-0.397-0.318-0.63-0.604v3.205h-1.055
		L652.027,1257.979L652.027,1257.979z M655.996,1262.898c0.327-0.412,0.49-1.028,0.49-1.849c0-0.5-0.072-0.93-0.217-1.289
		c-0.274-0.691-0.776-1.037-1.506-1.037c-0.732,0-1.234,0.365-1.504,1.096c-0.146,0.391-0.219,0.887-0.219,1.488
		c0,0.484,0.072,0.896,0.219,1.236c0.273,0.648,0.775,0.973,1.504,0.973C655.258,1263.517,655.668,1263.311,655.996,1262.898z"/>
	<path fill="#FFFFFF" d="M662.341,1258.202c0.198,0.137,0.401,0.336,0.606,0.598v-0.791h0.973v5.707c0,0.797-0.116,1.426-0.35,1.887
		c-0.437,0.852-1.26,1.277-2.471,1.277c-0.674,0-1.24-0.151-1.699-0.454s-0.717-0.776-0.771-1.421h1.072
		c0.051,0.281,0.152,0.498,0.304,0.65c0.237,0.234,0.61,0.352,1.118,0.352c0.805,0,1.331-0.285,1.58-0.855
		c0.147-0.336,0.215-0.936,0.203-1.799c-0.209,0.32-0.463,0.559-0.758,0.715c-0.296,0.156-0.688,0.234-1.174,0.234
		c-0.677,0-1.27-0.241-1.777-0.724c-0.507-0.483-0.762-1.28-0.762-2.394c0-1.051,0.256-1.871,0.768-2.461
		c0.512-0.59,1.13-0.885,1.854-0.885C661.547,1257.839,661.975,1257.96,662.341,1258.202z M662.47,1259.333
		c-0.319-0.375-0.725-0.562-1.218-0.562c-0.739,0-1.244,0.348-1.516,1.043c-0.145,0.371-0.217,0.857-0.217,1.459
		c0,0.707,0.143,1.245,0.43,1.614c0.285,0.369,0.668,0.554,1.15,0.554c0.754,0,1.285-0.342,1.592-1.025
		c0.171-0.387,0.256-0.838,0.256-1.354C662.947,1260.284,662.789,1259.708,662.47,1259.333z"/>
	<path fill="#FFFFFF" d="M668.779,1260.428c0.242-0.031,0.404-0.133,0.486-0.304c0.047-0.094,0.07-0.229,0.07-0.406
		c0-0.361-0.129-0.623-0.383-0.785c-0.256-0.163-0.621-0.244-1.098-0.244c-0.549,0-0.939,0.149-1.169,0.447
		c-0.129,0.165-0.212,0.411-0.251,0.736h-0.984c0.02-0.775,0.27-1.315,0.752-1.619c0.481-0.303,1.041-0.455,1.676-0.455
		c0.738,0,1.337,0.141,1.797,0.422c0.457,0.281,0.686,0.719,0.686,1.312v3.615c0,0.109,0.021,0.197,0.066,0.264s0.141,0.1,0.285,0.1
		c0.047,0,0.1-0.003,0.158-0.009c0.058-0.006,0.121-0.015,0.188-0.026v0.779c-0.164,0.047-0.289,0.076-0.375,0.088
		s-0.203,0.018-0.352,0.018c-0.363,0-0.627-0.129-0.791-0.387c-0.086-0.137-0.146-0.33-0.182-0.58
		c-0.215,0.281-0.523,0.525-0.926,0.732s-0.846,0.311-1.33,0.311c-0.582,0-1.059-0.177-1.428-0.53
		c-0.369-0.353-0.553-0.794-0.553-1.325c0-0.582,0.182-1.032,0.545-1.352c0.363-0.32,0.84-0.517,1.43-0.591L668.779,1260.428z
		 M666.559,1263.277c0.223,0.175,0.486,0.263,0.791,0.263c0.371,0,0.73-0.086,1.078-0.257c0.586-0.285,0.879-0.75,0.879-1.398
		v-0.849c-0.129,0.083-0.295,0.151-0.498,0.206c-0.202,0.055-0.4,0.094-0.596,0.117l-0.638,0.082
		c-0.382,0.051-0.669,0.13-0.862,0.24c-0.326,0.183-0.488,0.476-0.488,0.877C666.225,1262.862,666.336,1263.102,666.559,1263.277z"
		/>
	<path fill="#FFFFFF" d="M671.986,1257.979h1.031v0.832c0.211-0.285,0.441-0.506,0.693-0.662c0.355-0.234,0.775-0.352,1.256-0.352
		c0.713,0,1.318,0.272,1.816,0.817c0.497,0.545,0.746,1.323,0.746,2.335c0,1.367-0.359,2.344-1.077,2.93
		c-0.454,0.371-0.984,0.557-1.588,0.557c-0.475,0-0.872-0.104-1.194-0.311c-0.188-0.117-0.398-0.318-0.629-0.604v3.205h-1.055
		v-8.747C671.985,1257.979,671.986,1257.979,671.986,1257.979z M675.954,1262.898c0.327-0.412,0.491-1.028,0.491-1.849
		c0-0.5-0.072-0.93-0.219-1.289c-0.273-0.691-0.775-1.037-1.504-1.037c-0.733,0-1.235,0.365-1.506,1.096
		c-0.145,0.391-0.217,0.887-0.217,1.488c0,0.484,0.072,0.896,0.217,1.236c0.274,0.648,0.776,0.973,1.506,0.973
		C675.216,1263.517,675.627,1263.311,675.954,1262.898z"/>
	<path fill="#FFFFFF" d="M678.74,1262.948h1.225v1.277h-1.225V1262.948z"/>
	<path fill="#FFFFFF" d="M681.624,1255.618h1.072v1.195h-1.072V1255.618z M681.624,1257.979h1.072v6.246h-1.072V1257.979z"/>
	<path fill="#FFFFFF" d="M688.837,1258.577c0.555,0.539,0.832,1.331,0.832,2.376c0,1.011-0.245,1.846-0.733,2.506
		c-0.488,0.659-1.246,0.989-2.274,0.989c-0.857,0-1.538-0.292-2.042-0.875c-0.505-0.583-0.757-1.367-0.757-2.351
		c0-1.054,0.266-1.893,0.797-2.518c0.532-0.624,1.245-0.937,2.142-0.937C687.604,1257.769,688.282,1258.038,688.837,1258.577z
		 M688.182,1262.747c0.258-0.528,0.386-1.117,0.386-1.765c0-0.585-0.093-1.061-0.278-1.428c-0.293-0.577-0.799-0.866-1.518-0.866
		c-0.638,0-1.102,0.246-1.391,0.737c-0.289,0.492-0.435,1.085-0.435,1.779c0,0.667,0.146,1.223,0.435,1.668
		c0.289,0.444,0.749,0.667,1.379,0.667C687.451,1263.54,687.926,1263.276,688.182,1262.747z"/>
	<path fill="#FFFFFF" d="M692.764,1255.618h0.891l-2.73,8.607h-0.891L692.764,1255.618z"/>
	<path fill="#FFFFFF" d="M695,1262.192c0.031,0.582,0.256,0.984,0.674,1.207c0.215,0.117,0.457,0.176,0.727,0.176
		c0.504,0,0.934-0.21,1.289-0.63c0.355-0.42,0.607-1.272,0.756-2.558c-0.234,0.371-0.523,0.632-0.869,0.782
		c-0.346,0.15-0.719,0.226-1.117,0.226c-0.809,0-1.447-0.252-1.918-0.755c-0.471-0.503-0.707-1.151-0.707-1.943
		c0-0.761,0.232-1.43,0.697-2.008c0.465-0.577,1.15-0.866,2.057-0.866c1.223,0,2.066,0.55,2.531,1.651
		c0.258,0.605,0.387,1.362,0.387,2.271c0,1.027-0.154,1.937-0.463,2.729c-0.512,1.319-1.379,1.979-2.602,1.979
		c-0.82,0-1.443-0.215-1.869-0.645c-0.426-0.43-0.639-0.969-0.639-1.617L695,1262.192L695,1262.192z M697.746,1260.057
		c0.346-0.275,0.518-0.755,0.518-1.442c0-0.616-0.154-1.075-0.465-1.378c-0.311-0.302-0.707-0.453-1.188-0.453
		c-0.516,0-0.924,0.173-1.227,0.518c-0.303,0.345-0.455,0.807-0.455,1.384c0,0.546,0.133,0.98,0.398,1.302
		c0.266,0.321,0.689,0.482,1.271,0.482C697.018,1260.47,697.4,1260.332,697.746,1260.057z"/>
	<path fill="#FFFFFF" d="M701.376,1257.95l1.207,4.945l1.225-4.945h1.184l1.23,4.916l1.283-4.916h1.055l-1.822,6.275h-1.096
		l-1.277-4.857l-1.236,4.857h-1.096l-1.811-6.275C700.222,1257.95,701.376,1257.95,701.376,1257.95z"/>
	<path fill="#FFFFFF" d="M709.486,1257.95h1.043v0.891c0.25-0.309,0.477-0.533,0.68-0.674c0.348-0.238,0.742-0.357,1.184-0.357
		c0.5,0,0.902,0.123,1.207,0.369c0.172,0.141,0.328,0.348,0.469,0.621c0.234-0.336,0.51-0.585,0.826-0.747
		c0.316-0.162,0.672-0.243,1.066-0.243c0.844,0,1.418,0.305,1.723,0.914c0.164,0.328,0.246,0.77,0.246,1.324v4.178h-1.096v-4.359
		c0-0.418-0.104-0.705-0.312-0.861c-0.208-0.156-0.465-0.234-0.766-0.234c-0.414,0-0.77,0.139-1.068,0.416s-0.449,0.74-0.449,1.389
		v3.65h-1.072v-4.096c0-0.426-0.051-0.736-0.152-0.932c-0.16-0.293-0.459-0.439-0.896-0.439c-0.398,0-0.76,0.154-1.086,0.463
		s-0.49,0.867-0.49,1.676v3.328h-1.055v-6.277H709.486z"/>
	<path fill="#FFFFFF" d="M722.608,1264.226v-2.051h-3.68v-1.031l3.844-5.332h0.891v5.443h1.236v0.92h-1.236v2.051H722.608z
		 M722.591,1261.255v-3.811l-2.689,3.811H722.591z"/>
	<path fill="#FFFFFF" d="M726.387,1263.637c-0.447-0.545-0.671-1.208-0.671-1.989h1.102c0.047,0.543,0.148,0.938,0.305,1.184
		c0.273,0.441,0.768,0.662,1.482,0.662c0.555,0,1-0.148,1.336-0.445s0.504-0.68,0.504-1.148c0-0.578-0.177-0.982-0.53-1.213
		s-0.845-0.346-1.474-0.346c-0.07,0-0.142,0.001-0.214,0.003c-0.072,0.002-0.146,0.005-0.22,0.009v-0.932
		c0.109,0.012,0.201,0.02,0.275,0.023c0.074,0.003,0.154,0.006,0.24,0.006c0.395,0,0.719-0.062,0.973-0.188
		c0.445-0.219,0.668-0.609,0.668-1.172c0-0.418-0.148-0.74-0.445-0.967c-0.297-0.227-0.643-0.34-1.037-0.34
		c-0.703,0-1.189,0.234-1.459,0.703c-0.148,0.258-0.232,0.625-0.252,1.102h-1.043c0-0.625,0.125-1.156,0.375-1.594
		c0.43-0.781,1.186-1.172,2.268-1.172c0.855,0,1.518,0.19,1.986,0.571s0.703,0.933,0.703,1.655c0,0.516-0.139,0.934-0.416,1.254
		c-0.172,0.199-0.395,0.355-0.668,0.469c0.441,0.121,0.786,0.354,1.034,0.7c0.248,0.346,0.372,0.769,0.372,1.269
		c0,0.801-0.264,1.453-0.791,1.957c-0.527,0.504-1.275,0.756-2.244,0.756C727.554,1264.454,726.834,1264.182,726.387,1263.637z"/>
	<path fill="#FFFFFF" d="M732.728,1258.284v-0.809c0.762-0.074,1.293-0.198,1.594-0.372c0.301-0.174,0.525-0.585,0.674-1.233h0.832
		v8.355h-1.125v-5.941C734.703,1258.284,732.728,1258.284,732.728,1258.284z"/>
</g>
<rect x="1399.5" y="1250.5" opacity="0.2" fill="#FFFFFF" enable-background="new    " width="30" height="3"/>
<rect x="1399.5" y="1258.5" opacity="0.2" fill="#FFFFFF" enable-background="new    " width="30" height="3"/>
<rect x="1399.5" y="1266.5" opacity="0.2" fill="#FFFFFF" enable-background="new    " width="30" height="3"/>
</svg>
