<?xml version="1.0" encoding="utf-8"?>
<!-- Generator: Adobe Illustrator 17.0.0, SVG Export Plug-In . SVG Version: 6.00 Build 0)  -->
<!DOCTYPE svg PUBLIC "-//W3C//DTD SVG 1.1//EN" "http://www.w3.org/Graphics/SVG/1.1/DTD/svg11.dtd">
<svg version="1.1" id="_x31_2-Column_Grid" xmlns="http://www.w3.org/2000/svg" xmlns:xlink="http://www.w3.org/1999/xlink" x="0px"
	 y="0px" width="900px" height="2024px" viewBox="0 0 900 2024" enable-background="new 0 0 900 2024" xml:space="preserve">
<rect x="549.5" y="1290.5" fill="#FFFFFF" width="900" height="1915"/>
<g>
	<g>
		<path fill="#F7C1B2" d="M682.6,1345.571h5.365c1.44,0,2.575,0.414,3.295,1.116c0.522,0.54,0.81,1.207,0.81,2.017v0.036
			c0,1.638-1.008,2.485-1.999,2.917c1.494,0.45,2.701,1.314,2.701,3.043v0.036c0,2.161-1.818,3.439-4.573,3.439h-5.6L682.6,1345.571
			L682.6,1345.571z M687.732,1351.189c1.71,0,2.899-0.774,2.899-2.251v-0.036c0-1.242-0.99-2.053-2.791-2.053h-3.835v4.339
			L687.732,1351.189L687.732,1351.189z M688.235,1356.897c1.909,0,3.097-0.846,3.097-2.251v-0.036c0-1.368-1.152-2.161-3.349-2.161
			h-3.979v4.448H688.235z"/>
		<path fill="#F7C1B2" d="M695.217,1354.646v-5.78h1.387v5.438c0,1.729,0.936,2.809,2.575,2.809c1.584,0,2.791-1.17,2.791-2.917
			v-5.33h1.369v9.309h-1.369v-1.62c-0.63,1.008-1.584,1.818-3.187,1.818C696.531,1358.373,695.217,1356.86,695.217,1354.646z"/>
		<path fill="#F7C1B2" d="M705.675,1356.987l0.702-0.99c1.008,0.756,2.125,1.188,3.223,1.188c1.117,0,1.927-0.576,1.927-1.477
			v-0.036c0-0.936-1.098-1.296-2.323-1.639c-1.458-0.414-3.079-0.918-3.079-2.629v-0.036c0-1.603,1.333-2.665,3.169-2.665
			c1.135,0,2.395,0.396,3.349,1.026l-0.63,1.044c-0.864-0.558-1.855-0.9-2.755-0.9c-1.099,0-1.801,0.576-1.801,1.351v0.036
			c0,0.882,1.152,1.224,2.395,1.603c1.44,0.432,2.989,0.99,2.989,2.665v0.036c0,1.765-1.458,2.791-3.313,2.791
			C708.195,1358.355,706.719,1357.833,705.675,1356.987z"/>
		<path fill="#F7C1B2" d="M715.449,1345.301h1.584v1.53h-1.584V1345.301z M715.539,1348.866h1.387v9.309h-1.387V1348.866z"/>
		<path fill="#F7C1B2" d="M720.147,1348.866h1.387v1.621c0.612-1.008,1.584-1.819,3.187-1.819c2.25,0,3.565,1.512,3.565,3.727v5.78
			h-1.387v-5.438c0-1.729-0.936-2.809-2.575-2.809c-1.603,0-2.791,1.17-2.791,2.917v5.33h-1.387L720.147,1348.866L720.147,1348.866z
			"/>
		<path fill="#F7C1B2" d="M735.34,1357.185c1.278,0,2.179-0.522,2.935-1.314l0.864,0.774c-0.936,1.044-2.07,1.747-3.835,1.747
			c-2.557,0-4.646-1.963-4.646-4.861c0-2.701,1.891-4.862,4.465-4.862c2.755,0,4.339,2.197,4.339,4.933c0,0.126,0,0.27-0.018,0.486
			h-7.382C732.261,1356.05,733.701,1357.185,735.34,1357.185z M738.06,1352.971c-0.162-1.692-1.134-3.133-2.971-3.133
			c-1.602,0-2.827,1.332-3.024,3.133H738.06z"/>
		<path fill="#F7C1B2" d="M741.116,1356.987l0.702-0.99c1.008,0.756,2.125,1.188,3.223,1.188c1.117,0,1.927-0.576,1.927-1.477
			v-0.036c0-0.936-1.098-1.296-2.323-1.639c-1.458-0.414-3.079-0.918-3.079-2.629v-0.036c0-1.603,1.333-2.665,3.169-2.665
			c1.135,0,2.395,0.396,3.349,1.026l-0.63,1.044c-0.864-0.558-1.855-0.9-2.755-0.9c-1.099,0-1.801,0.576-1.801,1.351v0.036
			c0,0.882,1.152,1.224,2.395,1.603c1.44,0.432,2.989,0.99,2.989,2.665v0.036c0,1.765-1.458,2.791-3.313,2.791
			C743.638,1358.355,742.161,1357.833,741.116,1356.987z"/>
		<path fill="#F7C1B2" d="M749.901,1356.987l0.702-0.99c1.008,0.756,2.125,1.188,3.223,1.188c1.117,0,1.927-0.576,1.927-1.477
			v-0.036c0-0.936-1.098-1.296-2.323-1.639c-1.458-0.414-3.079-0.918-3.079-2.629v-0.036c0-1.603,1.333-2.665,3.169-2.665
			c1.135,0,2.395,0.396,3.349,1.026l-0.63,1.044c-0.864-0.558-1.855-0.9-2.755-0.9c-1.099,0-1.801,0.576-1.801,1.351v0.036
			c0,0.882,1.152,1.224,2.395,1.603c1.44,0.432,2.989,0.99,2.989,2.665v0.036c0,1.765-1.458,2.791-3.313,2.791
			C752.422,1358.355,750.944,1357.833,749.901,1356.987z"/>
		<path fill="#F7C1B2" d="M772.385,1356.392c-1.152,1.242-2.484,1.962-4.123,1.962c-2.269,0-3.961-1.422-3.961-3.529v-0.036
			c0-1.675,1.117-2.881,3.043-3.637c-0.864-1.008-1.26-1.782-1.26-2.773v-0.036c0-1.657,1.333-2.989,3.331-2.989
			c1.765,0,3.061,1.278,3.061,2.845v0.036c0,1.603-1.134,2.629-2.971,3.277l2.881,2.935c0.558-0.81,1.062-1.765,1.513-2.809
			l1.17,0.54c-0.558,1.188-1.134,2.269-1.819,3.169l2.197,2.251l-1.081,0.828L772.385,1356.392z M771.521,1355.51l-3.367-3.475
			c-1.675,0.612-2.413,1.639-2.413,2.701v0.036c0,1.351,1.081,2.377,2.629,2.377C769.558,1357.148,770.602,1356.518,771.521,1355.51
			z M771.142,1348.308v-0.036c0-1.008-0.756-1.746-1.783-1.746c-1.134,0-1.909,0.792-1.909,1.819v0.036
			c0,0.738,0.306,1.296,1.261,2.323C770.314,1350.162,771.142,1349.388,771.142,1348.308z"/>
		<path fill="#F7C1B2" d="M782.643,1351.909v-0.036c0-3.565,2.665-6.518,6.374-6.518c2.287,0,3.655,0.81,4.916,1.999l-0.972,1.044
			c-1.062-1.008-2.25-1.729-3.961-1.729c-2.791,0-4.879,2.269-4.879,5.167v0.036c0,2.917,2.107,5.204,4.879,5.204
			c1.729,0,2.863-0.666,4.069-1.818l0.937,0.918c-1.314,1.332-2.755,2.215-5.042,2.215
			C785.326,1358.391,782.643,1355.528,782.643,1351.909z"/>
		<path fill="#F7C1B2" d="M795.493,1353.565v-0.036c0-2.629,2.053-4.862,4.862-4.862c2.791,0,4.843,2.197,4.843,4.825v0.036
			c0,2.629-2.071,4.861-4.879,4.861C797.529,1358.391,795.493,1356.194,795.493,1353.565z M803.776,1353.565v-0.036
			c0-1.999-1.495-3.637-3.457-3.637c-2.017,0-3.403,1.638-3.403,3.601v0.036c0,1.999,1.477,3.619,3.439,3.619
			C802.372,1357.148,803.776,1355.528,803.776,1353.565z"/>
		<path fill="#F7C1B2" d="M807.175,1356.284h1.657v1.891h-1.657V1356.284z"/>
	</g>
</g>
<rect x="549.5" y="1230.5" fill="#2E464E" width="900" height="60"/>
<g>
	<circle fill="#F7C1B2" cx="639.979" cy="1352.479" r="25"/>
</g>
<rect x="1334.5" y="1347.5" fill="#F7C1B2" width="50" height="8"/>
<rect x="1269.5" y="1347.5" fill="#FEF3EF" width="49" height="8"/>
<rect x="1204.5" y="1347.5" fill="#FEF3EF" width="49" height="8"/>
<rect x="1138.5" y="1347.5" fill="#FEF3EF" width="49" height="8"/>
<rect x="1073.5" y="1347.5" fill="#FEF3EF" width="49" height="8"/>
<rect x="1007.5" y="1347.5" fill="#FEF3EF" width="49" height="8"/>
<rect x="549.5" y="1413.5" fill="#FBE6E0" width="900" height="491"/>
<rect x="680.5" y="1589.5" fill="#FEF3EF" width="114" height="17"/>
<rect x="811.5" y="1589.5" fill="#FEF3EF" width="180" height="17"/>
<rect x="1007.5" y="1589.5" fill="#FEF3EF" width="49" height="17"/>
<rect x="1073.5" y="1589.5" fill="#FEF3EF" width="114" height="17"/>
<rect x="1204.5" y="1589.5" fill="#FEF3EF" width="114" height="17"/>
<rect x="745.5" y="1622.5" fill="#FEF3EF" width="115" height="17"/>
<rect x="876.5" y="1622.5" fill="#FEF3EF" width="49" height="17"/>
<rect x="942.5" y="1622.5" fill="#FEF3EF" width="180" height="17"/>
<rect x="1138.5" y="1622.5" fill="#FEF3EF" width="115" height="17"/>
<g>
	<rect x="942.5" y="2047.5" fill="#FBE6E0" width="49" height="16"/>
	<rect x="1007.5" y="2047.5" fill="#FBE6E0" width="115" height="16"/>
	<rect x="1138.5" y="2047.5" fill="#FBE6E0" width="49" height="16"/>
	<rect x="1204.5" y="2047.5" fill="#FBE6E0" width="180" height="16"/>
	<rect x="942.5" y="2071.5" fill="#FBE6E0" width="114" height="17"/>
	<rect x="1073.5" y="2071.5" fill="#FBE6E0" width="180" height="17"/>
	<rect x="942.5" y="2104.5" fill="#FEF3EF" width="114" height="8"/>
	<rect x="1073.5" y="2104.5" fill="#FEF3EF" width="49" height="8"/>
	<rect x="1138.5" y="2104.5" fill="#FEF3EF" width="49" height="8"/>
	<rect x="1204.5" y="2104.5" fill="#FEF3EF" width="114" height="8"/>
	<rect x="942.5" y="2153.5" fill="#FEF3EF" width="49" height="8"/>
	<rect x="1204.5" y="2137.5" fill="#FEF3EF" width="49" height="8"/>
	<rect x="1007.5" y="2120.5" fill="#FEF3EF" width="90" height="9"/>
	<rect x="1269.5" y="2137.5" fill="#FEF3EF" width="49" height="8"/>
	<rect x="1269.5" y="2153.5" fill="#FEF3EF" width="25" height="8"/>
	<rect x="1007.5" y="2153.5" fill="#FEF3EF" width="115" height="8"/>
	<rect x="1138.5" y="2153.5" fill="#FEF3EF" width="115" height="8"/>
	<rect x="942.5" y="2137.5" fill="#FEF3EF" width="114" height="8"/>
	<rect x="1073.5" y="2137.5" fill="#FEF3EF" width="114" height="8"/>
	<rect x="942.5" y="2120.5" fill="#FEF3EF" width="49" height="9"/>
	<rect x="1114.5" y="2120.5" fill="#FEF3EF" width="179" height="9"/>
</g>
<g>
	<path fill="#F6B4A2" d="M705.1,1524.496h-7.699v-5.132h20.963v5.132h-7.698v20.168H705.1V1524.496z"/>
	<path fill="#F6B4A2" d="M724.176,1519.364h5.566v10.012h10.265v-10.012h5.566v25.3h-5.566v-10.156h-10.265v10.156h-5.566V1519.364
		L724.176,1519.364z"/>
	<path fill="#F6B4A2" d="M753.837,1519.364h19.084v4.952h-13.554v5.132h11.928v4.952h-11.928v5.313h13.735v4.952h-19.264
		L753.837,1519.364L753.837,1519.364z"/>
	<path fill="#F6B4A2" d="M793.226,1519.364h5.566v20.24h12.614v5.06h-18.179L793.226,1519.364L793.226,1519.364z"/>
	<path fill="#F6B4A2" d="M826.993,1519.183h5.132l10.843,25.481h-5.819l-2.313-5.674h-10.698l-2.313,5.674h-5.674L826.993,1519.183z
		 M832.848,1534.074l-3.362-8.205l-3.362,8.205H832.848z"/>
	<path fill="#F6B4A2" d="M848.623,1519.364h11.565c3.216,0,5.71,0.903,7.373,2.567c1.409,1.409,2.169,3.398,2.169,5.783v0.072
		c0,4.084-2.204,6.65-5.421,7.843l6.181,9.036h-6.506l-5.421-8.096h-4.373v8.096h-5.566L848.623,1519.364L848.623,1519.364z
		 M859.827,1531.652c2.711,0,4.265-1.445,4.265-3.578v-0.072c0-2.385-1.662-3.615-4.373-3.615h-5.53v7.264L859.827,1531.652
		L859.827,1531.652z"/>
	<path fill="#F6B4A2" d="M875.291,1532.086v-0.072c0-7.192,5.602-13.084,13.265-13.084c4.554,0,7.3,1.229,9.939,3.47l-3.506,4.229
		c-1.952-1.626-3.687-2.567-6.615-2.567c-4.048,0-7.264,3.578-7.264,7.88v0.072c0,4.626,3.18,8.024,7.662,8.024
		c2.025,0,3.831-0.506,5.241-1.518v-3.615h-5.602v-4.807h10.988v10.987c-2.603,2.204-6.181,4.012-10.807,4.012
		C880.712,1545.098,875.291,1539.568,875.291,1532.086z"/>
	<path fill="#F6B4A2" d="M907.063,1519.364h19.084v4.952h-13.554v5.132h11.928v4.952h-11.928v5.313h13.735v4.952h-19.264
		L907.063,1519.364L907.063,1519.364z"/>
	<path fill="#F6B4A2" d="M944.717,1540.977l3.289-3.94c2.277,1.879,4.663,3.073,7.554,3.073c2.277,0,3.651-0.903,3.651-2.385v-0.072
		c0-1.409-0.867-2.133-5.096-3.217c-5.096-1.301-8.385-2.71-8.385-7.735v-0.072c0-4.59,3.687-7.627,8.855-7.627
		c3.687,0,6.831,1.156,9.397,3.217l-2.892,4.193c-2.24-1.554-4.446-2.493-6.578-2.493c-2.133,0-3.253,0.976-3.253,2.204v0.072
		c0,1.662,1.084,2.204,5.458,3.325c5.132,1.337,8.024,3.181,8.024,7.59v0.072c0,5.024-3.831,7.843-9.289,7.843
		C951.62,1545.025,947.753,1543.688,944.717,1540.977z"/>
	<path fill="#F6B4A2" d="M970.081,1532.086v-0.072c0-7.192,5.421-13.084,13.193-13.084c4.771,0,7.627,1.59,9.975,3.904l-3.542,4.084
		c-1.952-1.771-3.94-2.856-6.47-2.856c-4.265,0-7.337,3.542-7.337,7.88v0.072c0,4.337,2.999,7.952,7.337,7.952
		c2.892,0,4.662-1.156,6.65-2.964l3.542,3.578c-2.602,2.783-5.494,4.518-10.373,4.518
		C975.611,1545.098,970.081,1539.351,970.081,1532.086z"/>
	<path fill="#F6B4A2" d="M999.536,1519.364h11.565c3.216,0,5.711,0.903,7.373,2.567c1.409,1.409,2.169,3.398,2.169,5.783v0.072
		c0,4.084-2.204,6.65-5.421,7.843l6.181,9.036h-6.506l-5.421-8.096h-4.373v8.096h-5.566L999.536,1519.364L999.536,1519.364z
		 M1010.74,1531.652c2.711,0,4.265-1.445,4.265-3.578v-0.072c0-2.385-1.662-3.615-4.373-3.615h-5.53v7.264L1010.74,1531.652
		L1010.74,1531.652L1010.74,1531.652z"/>
	<path fill="#F6B4A2" d="M1027.806,1519.364h19.084v4.952h-13.554v5.132h11.928v4.952h-11.928v5.313h13.735v4.952h-19.264
		L1027.806,1519.364L1027.806,1519.364z"/>
	<path fill="#F6B4A2" d="M1054.374,1519.364h19.084v4.952h-13.554v5.132h11.928v4.952h-11.928v5.313h13.735v4.952h-19.264
		L1054.374,1519.364L1054.374,1519.364z"/>
	<path fill="#F6B4A2" d="M1080.941,1519.364h5.133l11.855,15.578v-15.578h5.494v25.3h-4.735l-12.252-16.083v16.083h-5.495
		L1080.941,1519.364L1080.941,1519.364z"/>
	<path fill="#F6B4A2" d="M1122.498,1519.364h6.145l6.615,17.819l6.615-17.819h6l-10.229,25.481h-4.915L1122.498,1519.364z"/>
	<path fill="#F6B4A2" d="M1153.525,1519.364h19.084v4.952h-13.554v5.132h11.927v4.952h-11.927v5.313h13.735v4.952h-19.265V1519.364
		L1153.525,1519.364z"/>
	<path fill="#F6B4A2" d="M1180.093,1519.364h11.566c3.217,0,5.711,0.903,7.374,2.567c1.409,1.409,2.168,3.398,2.168,5.783v0.072
		c0,4.084-2.204,6.65-5.421,7.843l6.181,9.036h-6.506l-5.421-8.096h-4.373v8.096h-5.567L1180.093,1519.364L1180.093,1519.364z
		 M1191.297,1531.652c2.71,0,4.265-1.445,4.265-3.578v-0.072c0-2.385-1.663-3.615-4.373-3.615h-5.53v7.264L1191.297,1531.652
		L1191.297,1531.652L1191.297,1531.652z"/>
	<path fill="#F6B4A2" d="M1206.345,1540.977l3.288-3.94c2.277,1.879,4.662,3.073,7.553,3.073c2.277,0,3.651-0.903,3.651-2.385
		v-0.072c0-1.409-0.868-2.133-5.096-3.217c-5.097-1.301-8.385-2.71-8.385-7.735v-0.072c0-4.59,3.687-7.627,8.855-7.627
		c3.686,0,6.831,1.156,9.397,3.217l-2.891,4.193c-2.24-1.554-4.446-2.493-6.579-2.493s-3.253,0.976-3.253,2.204v0.072
		c0,1.662,1.085,2.204,5.458,3.325c5.132,1.337,8.023,3.181,8.023,7.59v0.072c0,5.024-3.83,7.843-9.289,7.843
		C1213.249,1545.025,1209.382,1543.688,1206.345,1540.977z"/>
	<path fill="#F6B4A2" d="M1233.394,1519.364h5.567v25.3h-5.567V1519.364z"/>
	<path fill="#F6B4A2" d="M1245.98,1532.086v-0.072c0-7.192,5.674-13.084,13.482-13.084c7.807,0,13.409,5.819,13.409,13.012v0.072
		c0,7.193-5.674,13.084-13.481,13.084C1251.583,1545.098,1245.98,1539.279,1245.98,1532.086z M1267.052,1532.086v-0.072
		c0-4.337-3.18-7.952-7.662-7.952s-7.59,3.542-7.59,7.88v0.072c0,4.337,3.181,7.952,7.663,7.952
		S1267.052,1536.423,1267.052,1532.086z"/>
	<path fill="#F6B4A2" d="M1279.117,1519.364h5.133l11.855,15.578v-15.578h5.494v25.3h-4.735l-12.252-16.083v16.083h-5.495
		L1279.117,1519.364L1279.117,1519.364z"/>
</g>
<circle fill="#FBE6E0" cx="737.682" cy="2104.591" r="122.727"/>
<rect x="549.5" y="2313.5" fill="#FEF3EF" width="900" height="409"/>
<rect x="811.5" y="2533.5" fill="#FFFFFF" width="114" height="8"/>
<rect x="942.5" y="2533.5" fill="#FFFFFF" width="49" height="8"/>
<rect x="1007.5" y="2533.5" fill="#FFFFFF" width="115" height="8"/>
<rect x="1138.5" y="2533.5" fill="#FFFFFF" width="49" height="8"/>
<rect x="876.5" y="2549.5" fill="#FFFFFF" width="180" height="8"/>
<rect x="1073.5" y="2549.5" fill="#FFFFFF" width="49" height="8"/>
<rect x="811.5" y="2476.5" fill="#FBE6E0" width="114" height="16"/>
<rect x="942.5" y="2476.5" fill="#FBE6E0" width="49" height="16"/>
<rect x="1007.5" y="2476.5" fill="#FBE6E0" width="180" height="16"/>
<rect x="745.5" y="2500.5" fill="#FBE6E0" width="115" height="16"/>
<rect x="876.5" y="2500.5" fill="#FBE6E0" width="180" height="16"/>
<rect x="1073.5" y="2500.5" fill="#FBE6E0" width="49" height="16"/>
<rect x="1138.5" y="2500.5" fill="#FBE6E0" width="115" height="16"/>
<circle fill="#FEF3EF" cx="672.227" cy="2849.136" r="57.273"/>
<circle fill="#FEF3EF" cx="835.864" cy="2849.136" r="57.273"/>
<circle fill="#FEF3EF" cx="999.5" cy="2849.136" r="57.273"/>
<circle fill="#FEF3EF" cx="1163.136" cy="2849.136" r="57.273"/>
<circle fill="#FEF3EF" cx="1326.773" cy="2849.136" r="57.273"/>
<rect x="549.5" y="3016.5" fill="#FBE6E0" width="900" height="205"/>
<rect x="549.5" y="3221.5" fill="#F7C1B2" width="900" height="33"/>
<rect x="614.5" y="3090.5" fill="#FEF3EF" width="115" height="8"/>
<rect x="745.5" y="3090.5" fill="#FEF3EF" width="49" height="8"/>
<rect x="745.5" y="3139.5" fill="#FEF3EF" width="25" height="8"/>
<rect x="681.5" y="3106.5" fill="#FEF3EF" width="89" height="9"/>
<rect x="614.5" y="3106.5" fill="#FEF3EF" width="50" height="9"/>
<rect x="614.5" y="3123.5" fill="#FEF3EF" width="180" height="8"/>
<rect x="614.5" y="3139.5" fill="#FEF3EF" width="115" height="8"/>
<rect x="614.5" y="2928.5" fill="#FBE6E0" width="115" height="8"/>
<rect x="778.5" y="2928.5" fill="#FBE6E0" width="115" height="8"/>
<rect x="942.5" y="2928.5" fill="#FBE6E0" width="114" height="8"/>
<rect x="1105.5" y="2928.5" fill="#FBE6E0" width="115" height="8"/>
<rect x="1269.5" y="2928.5" fill="#FBE6E0" width="115" height="8"/>
<rect x="1204.5" y="3090.5" fill="#FEF3EF" width="114" height="8"/>
<rect x="1334.5" y="3090.5" fill="#FEF3EF" width="50" height="8"/>
<rect x="1334.5" y="3139.5" fill="#FEF3EF" width="25" height="8"/>
<rect x="1334.5" y="3106.5" fill="#FEF3EF" width="25" height="9"/>
<rect x="1204.5" y="3106.5" fill="#FEF3EF" width="114" height="9"/>
<rect x="1204.5" y="3090.5" fill="#FEF3EF" width="175" height="8"/>
<rect x="1269.5" y="3123.5" fill="#FEF3EF" width="115" height="8"/>
<rect x="1204.5" y="3123.5" fill="#FEF3EF" width="49" height="8"/>
<rect x="1204.5" y="3139.5" fill="#FEF3EF" width="114" height="8"/>
<rect x="614.5" y="3233.5" fill="#FEF3EF" width="115" height="8"/>
<rect x="745.5" y="3233.5" fill="#FEF3EF" width="49" height="8"/>
<rect x="1230.5" y="3233.5" fill="#FEF3EF" width="154" height="8"/>
<rect x="876.5" y="3090.5" fill="#FEF3EF" width="49" height="8"/>
<rect x="876.5" y="3139.5" fill="#FEF3EF" width="49" height="8"/>
<rect x="942.5" y="3090.5" fill="#FEF3EF" width="49" height="8"/>
<rect x="1073.5" y="3106.5" fill="#FEF3EF" width="24" height="9"/>
<rect x="1007.5" y="3090.5" fill="#FEF3EF" width="115" height="8"/>
<rect x="876.5" y="3106.5" fill="#FEF3EF" width="180" height="9"/>
<rect x="876.5" y="3123.5" fill="#FEF3EF" width="115" height="8"/>
<rect x="1007.5" y="3123.5" fill="#FEF3EF" width="115" height="8"/>
<rect x="942.5" y="3139.5" fill="#FEF3EF" width="155" height="8"/>
<g>
	<path fill="#FFFFFF" d="M1121.5,1765c0,15.74-12.76,28.5-28.5,28.5H905c-15.74,0-28.5-12.76-28.5-28.5l0,0
		c0-15.74,12.76-28.5,28.5-28.5h188C1108.74,1736.5,1121.5,1749.26,1121.5,1765L1121.5,1765z"/>
</g>
<rect x="942.5" y="1760.5" fill="#FBE6E0" width="114" height="9"/>
<g opacity="0.2">
	<path fill="#FFFFFF" d="M1377.5,1272.5c0,0.55-0.45,1-1,1h-748c-0.55,0-1-0.45-1-1v-24c0-0.55,0.45-1,1-1h748c0.55,0,1,0.45,1,1
		V1272.5z"/>
</g>
<circle opacity="0.2" fill="#FFFFFF" enable-background="new    " cx="576.5" cy="1260.5" r="7"/>
<circle opacity="0.2" fill="#FFFFFF" enable-background="new    " cx="600.5" cy="1260.5" r="7"/>
<rect x="1399.5" y="1250.5" opacity="0.2" fill="#FFFFFF" enable-background="new    " width="30" height="3"/>
<rect x="1399.5" y="1258.5" opacity="0.2" fill="#FFFFFF" enable-background="new    " width="30" height="3"/>
<rect x="1399.5" y="1266.5" opacity="0.2" fill="#FFFFFF" enable-background="new    " width="30" height="3"/>
<g opacity="0.7">
	<path fill="#FFFFFF" d="M638.068,1258.155v0.912h0.024c0.464-0.704,1.132-1.056,2.004-1.056c0.384,0,0.732,0.08,1.044,0.239
		c0.312,0.16,0.532,0.433,0.66,0.816c0.208-0.336,0.481-0.596,0.822-0.78c0.34-0.184,0.714-0.275,1.122-0.275
		c0.312,0,0.594,0.034,0.846,0.102c0.252,0.068,0.468,0.174,0.648,0.318c0.18,0.144,0.319,0.33,0.42,0.558
		c0.1,0.229,0.149,0.502,0.149,0.822v4.548h-1.02v-4.068c0-0.191-0.017-0.372-0.048-0.54c-0.032-0.168-0.093-0.313-0.181-0.438
		s-0.21-0.222-0.366-0.294c-0.155-0.072-0.357-0.108-0.605-0.108c-0.504,0-0.9,0.145-1.188,0.433
		c-0.287,0.288-0.432,0.672-0.432,1.151v3.864h-1.02v-4.068c0-0.199-0.019-0.384-0.055-0.552s-0.098-0.313-0.186-0.438
		s-0.206-0.221-0.354-0.288c-0.147-0.068-0.338-0.103-0.569-0.103c-0.297,0-0.551,0.061-0.763,0.181
		c-0.212,0.119-0.384,0.264-0.516,0.432s-0.228,0.342-0.288,0.521c-0.06,0.181-0.09,0.33-0.09,0.45v3.864h-1.021v-6.204H638.068z"/>
	<path fill="#FFFFFF" d="M649.427,1265.943c-0.115,0.208-0.244,0.378-0.384,0.51s-0.294,0.229-0.462,0.288
		c-0.168,0.061-0.368,0.09-0.6,0.09c-0.12,0-0.24-0.008-0.36-0.023c-0.12-0.017-0.236-0.044-0.348-0.084v-0.937
		c0.096,0.032,0.193,0.064,0.294,0.097c0.1,0.031,0.202,0.048,0.306,0.048c0.208,0,0.376-0.048,0.504-0.145
		c0.128-0.096,0.24-0.235,0.336-0.42l0.42-1.044l-2.46-6.168h1.152l1.812,5.076h0.024l1.74-5.076h1.08l-2.7,7.021
		C649.661,1265.479,649.543,1265.735,649.427,1265.943z"/>
	<path fill="#FFFFFF" d="M654.401,1258.155v0.84h0.023c0.168-0.344,0.433-0.594,0.792-0.75c0.36-0.155,0.757-0.233,1.188-0.233
		c0.479,0,0.897,0.088,1.254,0.264c0.355,0.176,0.652,0.414,0.888,0.714c0.236,0.3,0.414,0.646,0.534,1.038
		c0.12,0.393,0.18,0.809,0.18,1.248c0,0.44-0.058,0.856-0.174,1.248s-0.292,0.734-0.527,1.026c-0.236,0.292-0.532,0.521-0.889,0.689
		c-0.355,0.168-0.77,0.252-1.242,0.252c-0.151,0-0.321-0.016-0.51-0.048c-0.188-0.032-0.374-0.084-0.558-0.156
		c-0.185-0.071-0.358-0.17-0.522-0.294s-0.302-0.277-0.414-0.462h-0.023v3.192h-1.021v-8.568H654.401z M658.067,1260.357
		c-0.076-0.276-0.192-0.522-0.349-0.738c-0.155-0.216-0.355-0.388-0.6-0.516s-0.53-0.192-0.858-0.192
		c-0.344,0-0.636,0.068-0.876,0.204c-0.239,0.137-0.436,0.314-0.588,0.534c-0.151,0.22-0.262,0.47-0.33,0.75
		c-0.067,0.28-0.102,0.563-0.102,0.852c0,0.305,0.036,0.599,0.108,0.883c0.071,0.283,0.186,0.533,0.342,0.75
		c0.155,0.216,0.357,0.39,0.605,0.521s0.548,0.198,0.9,0.198c0.352,0,0.646-0.068,0.882-0.204s0.426-0.316,0.57-0.54
		c0.144-0.224,0.248-0.48,0.312-0.768c0.064-0.288,0.096-0.584,0.096-0.889C658.181,1260.915,658.144,1260.634,658.067,1260.357z"/>
	<path fill="#FFFFFF" d="M661.385,1258.155v1.308h0.023c0.248-0.504,0.552-0.876,0.912-1.115c0.36-0.24,0.816-0.353,1.368-0.336
		v1.08c-0.408,0-0.756,0.056-1.044,0.168c-0.288,0.111-0.521,0.275-0.696,0.491c-0.176,0.217-0.304,0.479-0.384,0.786
		c-0.08,0.309-0.12,0.662-0.12,1.062v2.76h-1.02v-6.204H661.385z"/>
	<path fill="#FFFFFF" d="M664.097,1259.985c0.128-0.396,0.32-0.74,0.576-1.032s0.571-0.521,0.948-0.689
		c0.376-0.168,0.808-0.252,1.296-0.252c0.495,0,0.93,0.084,1.302,0.252s0.686,0.397,0.942,0.689
		c0.256,0.292,0.447,0.637,0.575,1.032c0.128,0.396,0.192,0.822,0.192,1.278s-0.064,0.88-0.192,1.271
		c-0.128,0.393-0.319,0.734-0.575,1.026c-0.257,0.292-0.57,0.52-0.942,0.684s-0.807,0.246-1.302,0.246
		c-0.488,0-0.92-0.082-1.296-0.246c-0.377-0.164-0.692-0.392-0.948-0.684s-0.448-0.634-0.576-1.026
		c-0.128-0.392-0.192-0.815-0.192-1.271S663.969,1260.382,664.097,1259.985z M665.135,1262.266c0.1,0.292,0.238,0.536,0.414,0.731
		c0.176,0.196,0.382,0.347,0.618,0.45c0.235,0.104,0.485,0.156,0.75,0.156c0.264,0,0.514-0.052,0.75-0.156
		c0.235-0.104,0.441-0.254,0.617-0.45c0.177-0.195,0.314-0.439,0.414-0.731c0.101-0.292,0.15-0.626,0.15-1.002
		s-0.05-0.71-0.15-1.002c-0.1-0.292-0.237-0.538-0.414-0.738c-0.176-0.2-0.382-0.352-0.617-0.456
		c-0.236-0.104-0.486-0.156-0.75-0.156c-0.265,0-0.515,0.053-0.75,0.156c-0.236,0.104-0.442,0.256-0.618,0.456
		s-0.314,0.446-0.414,0.738c-0.101,0.292-0.15,0.626-0.15,1.002S665.034,1261.974,665.135,1262.266z"/>
	<path fill="#FFFFFF" d="M671.807,1266.346c-0.269,0.252-0.63,0.378-1.086,0.378c-0.185,0-0.356-0.017-0.517-0.048v-0.876
		c0.04,0.008,0.074,0.014,0.103,0.018s0.058,0.006,0.09,0.006h0.216c0.224,0,0.376-0.062,0.456-0.186s0.12-0.347,0.12-0.666v-6.816
		h1.02v6.984C672.208,1265.691,672.074,1266.094,671.807,1266.346z M671.188,1257.039v-1.248h1.02v1.248H671.188z"/>
	<path fill="#FFFFFF" d="M678.185,1263.963c-0.464,0.353-1.048,0.528-1.752,0.528c-0.496,0-0.926-0.08-1.29-0.24
		c-0.364-0.159-0.67-0.384-0.918-0.672s-0.435-0.632-0.559-1.031c-0.124-0.4-0.193-0.836-0.21-1.309
		c0-0.472,0.072-0.904,0.217-1.296c0.144-0.392,0.346-0.732,0.605-1.02c0.26-0.288,0.568-0.513,0.924-0.673
		c0.356-0.159,0.746-0.239,1.17-0.239c0.553,0,1.01,0.113,1.374,0.342c0.364,0.228,0.656,0.518,0.876,0.87
		c0.221,0.352,0.372,0.736,0.456,1.151c0.084,0.416,0.118,0.812,0.103,1.188h-4.645c-0.008,0.271,0.024,0.53,0.097,0.773
		c0.071,0.244,0.188,0.461,0.348,0.648c0.16,0.188,0.364,0.338,0.612,0.45c0.247,0.112,0.54,0.168,0.876,0.168
		c0.432,0,0.786-0.1,1.062-0.3c0.276-0.2,0.458-0.504,0.546-0.912h1.008C678.948,1263.087,678.648,1263.611,678.185,1263.963z
		 M677.938,1259.979c-0.092-0.216-0.216-0.402-0.372-0.559c-0.156-0.155-0.34-0.279-0.552-0.371
		c-0.212-0.093-0.446-0.139-0.702-0.139c-0.264,0-0.502,0.046-0.714,0.139c-0.212,0.092-0.395,0.218-0.546,0.378
		c-0.152,0.16-0.272,0.346-0.36,0.558s-0.14,0.438-0.156,0.678h3.564C678.084,1260.424,678.03,1260.195,677.938,1259.979z"/>
	<path fill="#FFFFFF" d="M683.943,1259.235c-0.256-0.216-0.6-0.324-1.031-0.324c-0.368,0-0.677,0.068-0.925,0.204
		c-0.248,0.137-0.445,0.316-0.594,0.54c-0.147,0.225-0.254,0.482-0.317,0.774c-0.064,0.292-0.097,0.594-0.097,0.905
		c0,0.288,0.034,0.568,0.103,0.841c0.067,0.271,0.174,0.514,0.317,0.726c0.145,0.212,0.332,0.382,0.564,0.51
		c0.231,0.128,0.508,0.192,0.828,0.192c0.504,0,0.897-0.132,1.182-0.396c0.284-0.264,0.458-0.636,0.522-1.115h1.044
		c-0.112,0.768-0.398,1.359-0.858,1.775s-1.086,0.624-1.878,0.624c-0.472,0-0.89-0.076-1.254-0.228
		c-0.364-0.152-0.668-0.368-0.912-0.648s-0.428-0.613-0.552-1.002c-0.124-0.388-0.187-0.813-0.187-1.278
		c0-0.464,0.061-0.897,0.181-1.302c0.12-0.403,0.302-0.756,0.546-1.056s0.55-0.536,0.918-0.708s0.796-0.258,1.284-0.258
		c0.352,0,0.682,0.042,0.989,0.126c0.309,0.084,0.58,0.214,0.816,0.39s0.43,0.398,0.582,0.666c0.151,0.269,0.248,0.586,0.288,0.954
		h-1.056C684.368,1259.756,684.2,1259.451,683.943,1259.235z"/>
	<path fill="#FFFFFF" d="M689.332,1258.155v0.9h-1.236v3.852c0,0.12,0.011,0.216,0.03,0.288s0.058,0.128,0.114,0.168
		c0.056,0.04,0.134,0.066,0.233,0.078c0.101,0.012,0.23,0.018,0.391,0.018h0.468v0.9h-0.78c-0.264,0-0.49-0.018-0.678-0.054
		s-0.34-0.103-0.456-0.198s-0.202-0.232-0.258-0.408s-0.084-0.408-0.084-0.696v-3.947h-1.056v-0.9h1.056v-1.86h1.02v1.86H689.332z"
		/>
	<path fill="#FFFFFF" d="M692.021,1263.027v1.332h-1.332v-1.332H692.021z"/>
	<path fill="#FFFFFF" d="M694.576,1262.974c0.096,0.155,0.222,0.28,0.378,0.372s0.332,0.158,0.528,0.197
		c0.196,0.041,0.397,0.061,0.605,0.061c0.16,0,0.328-0.012,0.505-0.036c0.176-0.024,0.338-0.068,0.485-0.132
		c0.148-0.064,0.271-0.158,0.366-0.282s0.144-0.282,0.144-0.474c0-0.265-0.1-0.464-0.3-0.601c-0.2-0.136-0.45-0.246-0.75-0.33
		s-0.626-0.159-0.978-0.228c-0.353-0.068-0.679-0.164-0.979-0.288s-0.55-0.298-0.75-0.522c-0.2-0.224-0.3-0.535-0.3-0.936
		c0-0.312,0.07-0.58,0.21-0.804c0.14-0.225,0.32-0.406,0.54-0.546c0.22-0.141,0.468-0.244,0.744-0.312
		c0.276-0.067,0.55-0.102,0.822-0.102c0.352,0,0.676,0.029,0.972,0.09c0.296,0.06,0.558,0.164,0.786,0.312
		c0.228,0.148,0.41,0.349,0.546,0.601s0.216,0.565,0.24,0.941h-1.021c-0.016-0.199-0.067-0.365-0.155-0.498
		c-0.089-0.132-0.2-0.237-0.337-0.317c-0.136-0.08-0.286-0.139-0.449-0.174c-0.164-0.036-0.33-0.055-0.498-0.055
		c-0.152,0-0.307,0.013-0.462,0.036c-0.156,0.024-0.299,0.066-0.427,0.126c-0.128,0.061-0.231,0.141-0.312,0.24
		s-0.12,0.229-0.12,0.39c0,0.177,0.062,0.322,0.186,0.438s0.282,0.212,0.475,0.288c0.191,0.076,0.408,0.14,0.647,0.191
		c0.24,0.053,0.48,0.106,0.721,0.162c0.256,0.057,0.506,0.124,0.75,0.204c0.243,0.08,0.46,0.187,0.647,0.318
		c0.188,0.132,0.34,0.298,0.456,0.498s0.174,0.448,0.174,0.744c0,0.376-0.078,0.688-0.233,0.936c-0.156,0.248-0.36,0.448-0.612,0.6
		c-0.252,0.152-0.536,0.259-0.852,0.318c-0.316,0.06-0.631,0.09-0.942,0.09c-0.344,0-0.672-0.036-0.984-0.107
		c-0.312-0.072-0.588-0.19-0.827-0.354c-0.24-0.164-0.433-0.38-0.576-0.647c-0.145-0.269-0.225-0.595-0.24-0.979h1.02
		C694.428,1262.627,694.48,1262.817,694.576,1262.974z"/>
	<path fill="#FFFFFF" d="M702.448,1258.155v0.9h-1.236v3.852c0,0.12,0.011,0.216,0.03,0.288s0.058,0.128,0.114,0.168
		c0.056,0.04,0.134,0.066,0.233,0.078c0.101,0.012,0.23,0.018,0.391,0.018h0.468v0.9h-0.78c-0.264,0-0.49-0.018-0.678-0.054
		s-0.34-0.103-0.456-0.198s-0.202-0.232-0.258-0.408s-0.084-0.408-0.084-0.696v-3.947h-1.056v-0.9h1.056v-1.86h1.02v1.86H702.448z"
		/>
	<path fill="#FFFFFF" d="M703.432,1259.985c0.128-0.396,0.32-0.74,0.576-1.032s0.571-0.521,0.948-0.689
		c0.376-0.168,0.808-0.252,1.296-0.252c0.495,0,0.93,0.084,1.302,0.252s0.686,0.397,0.942,0.689
		c0.256,0.292,0.447,0.637,0.575,1.032c0.128,0.396,0.192,0.822,0.192,1.278s-0.064,0.88-0.192,1.271
		c-0.128,0.393-0.319,0.734-0.575,1.026c-0.257,0.292-0.57,0.52-0.942,0.684s-0.807,0.246-1.302,0.246
		c-0.488,0-0.92-0.082-1.296-0.246c-0.377-0.164-0.692-0.392-0.948-0.684s-0.448-0.634-0.576-1.026
		c-0.128-0.392-0.192-0.815-0.192-1.271S703.304,1260.382,703.432,1259.985z M704.47,1262.266c0.1,0.292,0.238,0.536,0.414,0.731
		c0.176,0.196,0.382,0.347,0.618,0.45c0.235,0.104,0.485,0.156,0.75,0.156c0.264,0,0.514-0.052,0.75-0.156
		c0.235-0.104,0.441-0.254,0.617-0.45c0.177-0.195,0.314-0.439,0.414-0.731c0.101-0.292,0.15-0.626,0.15-1.002
		s-0.05-0.71-0.15-1.002c-0.1-0.292-0.237-0.538-0.414-0.738c-0.176-0.2-0.382-0.352-0.617-0.456
		c-0.236-0.104-0.486-0.156-0.75-0.156c-0.265,0-0.515,0.053-0.75,0.156c-0.236,0.104-0.442,0.256-0.618,0.456
		s-0.314,0.446-0.414,0.738c-0.101,0.292-0.15,0.626-0.15,1.002S704.369,1261.974,704.47,1262.266z"/>
	<path fill="#FFFFFF" d="M711.52,1258.155v0.84h0.023c0.168-0.344,0.433-0.594,0.792-0.75c0.36-0.155,0.757-0.233,1.188-0.233
		c0.479,0,0.897,0.088,1.254,0.264c0.355,0.176,0.652,0.414,0.888,0.714c0.236,0.3,0.414,0.646,0.534,1.038
		c0.12,0.393,0.18,0.809,0.18,1.248c0,0.44-0.058,0.856-0.174,1.248s-0.292,0.734-0.527,1.026c-0.236,0.292-0.532,0.521-0.889,0.689
		c-0.355,0.168-0.77,0.252-1.242,0.252c-0.151,0-0.321-0.016-0.51-0.048c-0.188-0.032-0.374-0.084-0.558-0.156
		c-0.185-0.071-0.358-0.17-0.522-0.294s-0.302-0.277-0.414-0.462h-0.023v3.192h-1.021v-8.568H711.52z M715.186,1260.357
		c-0.076-0.276-0.192-0.522-0.349-0.738c-0.155-0.216-0.355-0.388-0.6-0.516s-0.53-0.192-0.858-0.192
		c-0.344,0-0.636,0.068-0.876,0.204c-0.239,0.137-0.436,0.314-0.588,0.534c-0.151,0.22-0.262,0.47-0.33,0.75
		c-0.067,0.28-0.102,0.563-0.102,0.852c0,0.305,0.036,0.599,0.108,0.883c0.071,0.283,0.186,0.533,0.342,0.75
		c0.155,0.216,0.357,0.39,0.605,0.521s0.548,0.198,0.9,0.198c0.352,0,0.646-0.068,0.882-0.204s0.426-0.316,0.57-0.54
		c0.144-0.224,0.248-0.48,0.312-0.768c0.064-0.288,0.096-0.584,0.096-0.889C715.299,1260.915,715.262,1260.634,715.186,1260.357z"/>
	<path fill="#FFFFFF" d="M722.235,1266.111c-0.464,0.504-1.192,0.756-2.184,0.756c-0.288,0-0.582-0.032-0.882-0.096
		c-0.301-0.064-0.572-0.168-0.816-0.312c-0.244-0.144-0.446-0.332-0.606-0.563c-0.16-0.232-0.248-0.517-0.264-0.853h1.021
		c0.008,0.185,0.065,0.341,0.174,0.469c0.107,0.128,0.24,0.231,0.396,0.312c0.156,0.08,0.326,0.138,0.511,0.174
		c0.184,0.036,0.359,0.055,0.527,0.055c0.336,0,0.62-0.059,0.853-0.175c0.231-0.115,0.424-0.275,0.575-0.479
		c0.152-0.204,0.263-0.45,0.33-0.738c0.068-0.288,0.103-0.604,0.103-0.948v-0.407h-0.024c-0.176,0.384-0.441,0.666-0.798,0.846
		c-0.355,0.18-0.734,0.27-1.134,0.27c-0.464,0-0.868-0.084-1.212-0.252c-0.345-0.168-0.632-0.394-0.864-0.678
		s-0.406-0.616-0.521-0.996c-0.116-0.38-0.175-0.781-0.175-1.206c0-0.367,0.049-0.746,0.145-1.134s0.256-0.74,0.479-1.056
		c0.225-0.316,0.521-0.576,0.889-0.78c0.367-0.204,0.819-0.306,1.355-0.306c0.392,0,0.752,0.086,1.08,0.258s0.584,0.43,0.769,0.773
		h0.012v-0.888h0.96v5.676C722.932,1264.848,722.699,1265.607,722.235,1266.111z M720.934,1263.321
		c0.235-0.14,0.426-0.324,0.57-0.552c0.144-0.229,0.25-0.486,0.317-0.774c0.068-0.288,0.103-0.576,0.103-0.863
		c0-0.272-0.032-0.54-0.097-0.805c-0.063-0.264-0.166-0.502-0.306-0.714s-0.322-0.382-0.546-0.51
		c-0.225-0.128-0.496-0.192-0.816-0.192c-0.328,0-0.607,0.062-0.84,0.187s-0.422,0.29-0.569,0.498
		c-0.148,0.208-0.257,0.448-0.324,0.72c-0.068,0.272-0.103,0.556-0.103,0.852c0,0.28,0.028,0.561,0.084,0.841
		c0.057,0.279,0.152,0.533,0.288,0.762c0.136,0.228,0.316,0.412,0.54,0.552c0.224,0.141,0.504,0.21,0.84,0.21
		S720.697,1263.462,720.934,1263.321z"/>
	<path fill="#FFFFFF" d="M729.231,1264.491c-0.265,0-0.475-0.074-0.63-0.222c-0.156-0.148-0.234-0.391-0.234-0.727
		c-0.28,0.336-0.606,0.578-0.978,0.727c-0.372,0.147-0.774,0.222-1.206,0.222c-0.28,0-0.545-0.03-0.792-0.09
		c-0.248-0.06-0.467-0.16-0.654-0.3c-0.188-0.14-0.336-0.32-0.444-0.54c-0.107-0.22-0.162-0.486-0.162-0.798
		c0-0.353,0.061-0.641,0.181-0.864s0.277-0.406,0.474-0.546s0.42-0.246,0.672-0.318s0.51-0.132,0.774-0.18
		c0.279-0.056,0.546-0.098,0.798-0.126s0.474-0.068,0.666-0.12s0.344-0.128,0.456-0.228c0.111-0.101,0.168-0.246,0.168-0.438
		c0-0.224-0.042-0.404-0.126-0.54s-0.192-0.24-0.324-0.312c-0.132-0.072-0.28-0.12-0.444-0.145
		c-0.164-0.023-0.325-0.036-0.485-0.036c-0.433,0-0.792,0.082-1.08,0.246s-0.444,0.475-0.468,0.93h-1.021
		c0.016-0.384,0.096-0.708,0.24-0.972c0.144-0.264,0.336-0.478,0.576-0.642c0.239-0.164,0.516-0.282,0.828-0.354
		c0.312-0.071,0.64-0.107,0.983-0.107c0.28,0,0.559,0.02,0.834,0.06c0.276,0.04,0.526,0.122,0.75,0.246s0.404,0.298,0.54,0.522
		c0.136,0.224,0.204,0.516,0.204,0.876v3.191c0,0.24,0.014,0.416,0.042,0.528s0.122,0.168,0.282,0.168
		c0.088,0,0.191-0.02,0.312-0.061v0.792C729.787,1264.439,729.543,1264.491,729.231,1264.491z M727.803,1261.365
		c-0.208,0.044-0.426,0.08-0.653,0.108c-0.229,0.028-0.458,0.06-0.69,0.096c-0.231,0.036-0.439,0.094-0.624,0.174
		c-0.184,0.08-0.334,0.194-0.45,0.342c-0.115,0.148-0.174,0.351-0.174,0.606c0,0.168,0.034,0.311,0.103,0.426
		c0.067,0.116,0.155,0.21,0.264,0.282s0.236,0.124,0.384,0.156c0.148,0.032,0.298,0.048,0.45,0.048c0.336,0,0.624-0.046,0.864-0.138
		c0.24-0.093,0.436-0.208,0.588-0.349c0.151-0.14,0.264-0.292,0.336-0.456s0.108-0.317,0.108-0.462v-1.044
		C728.179,1261.251,728.011,1261.321,727.803,1261.365z"/>
	<path fill="#FFFFFF" d="M731.968,1258.155v0.84h0.023c0.168-0.344,0.433-0.594,0.792-0.75c0.36-0.155,0.757-0.233,1.188-0.233
		c0.479,0,0.897,0.088,1.254,0.264c0.355,0.176,0.652,0.414,0.888,0.714c0.236,0.3,0.414,0.646,0.534,1.038
		c0.12,0.393,0.18,0.809,0.18,1.248c0,0.44-0.058,0.856-0.174,1.248s-0.292,0.734-0.527,1.026c-0.236,0.292-0.532,0.521-0.889,0.689
		c-0.355,0.168-0.77,0.252-1.242,0.252c-0.151,0-0.321-0.016-0.51-0.048c-0.188-0.032-0.374-0.084-0.558-0.156
		c-0.185-0.071-0.358-0.17-0.522-0.294s-0.302-0.277-0.414-0.462h-0.023v3.192h-1.021v-8.568H731.968z M735.634,1260.357
		c-0.076-0.276-0.192-0.522-0.349-0.738c-0.155-0.216-0.355-0.388-0.6-0.516s-0.53-0.192-0.858-0.192
		c-0.344,0-0.636,0.068-0.876,0.204c-0.239,0.137-0.436,0.314-0.588,0.534c-0.151,0.22-0.262,0.47-0.33,0.75
		c-0.067,0.28-0.102,0.563-0.102,0.852c0,0.305,0.036,0.599,0.108,0.883c0.071,0.283,0.186,0.533,0.342,0.75
		c0.155,0.216,0.357,0.39,0.605,0.521s0.548,0.198,0.9,0.198c0.352,0,0.646-0.068,0.882-0.204s0.426-0.316,0.57-0.54
		c0.144-0.224,0.248-0.48,0.312-0.768c0.064-0.288,0.096-0.584,0.096-0.889C735.747,1260.915,735.71,1260.634,735.634,1260.357z"/>
	<path fill="#FFFFFF" d="M739.587,1263.027v1.332h-1.332v-1.332H739.587z"/>
	<path fill="#FFFFFF" d="M741.423,1257.039v-1.248h1.02v1.248H741.423z M742.442,1258.155v6.204h-1.02v-6.204H742.442z"/>
	<path fill="#FFFFFF" d="M743.883,1259.985c0.128-0.396,0.32-0.74,0.576-1.032s0.571-0.521,0.948-0.689
		c0.376-0.168,0.808-0.252,1.296-0.252c0.495,0,0.93,0.084,1.302,0.252s0.686,0.397,0.942,0.689
		c0.256,0.292,0.447,0.637,0.575,1.032c0.128,0.396,0.192,0.822,0.192,1.278s-0.064,0.88-0.192,1.271
		c-0.128,0.393-0.319,0.734-0.575,1.026c-0.257,0.292-0.57,0.52-0.942,0.684s-0.807,0.246-1.302,0.246
		c-0.488,0-0.92-0.082-1.296-0.246c-0.377-0.164-0.692-0.392-0.948-0.684s-0.448-0.634-0.576-1.026
		c-0.128-0.392-0.192-0.815-0.192-1.271S743.755,1260.382,743.883,1259.985z M744.921,1262.266c0.1,0.292,0.238,0.536,0.414,0.731
		c0.176,0.196,0.382,0.347,0.618,0.45c0.235,0.104,0.485,0.156,0.75,0.156c0.264,0,0.514-0.052,0.75-0.156
		c0.235-0.104,0.441-0.254,0.617-0.45c0.177-0.195,0.314-0.439,0.414-0.731c0.101-0.292,0.15-0.626,0.15-1.002
		s-0.05-0.71-0.15-1.002c-0.1-0.292-0.237-0.538-0.414-0.738c-0.176-0.2-0.382-0.352-0.617-0.456
		c-0.236-0.104-0.486-0.156-0.75-0.156c-0.265,0-0.515,0.053-0.75,0.156c-0.236,0.104-0.442,0.256-0.618,0.456
		s-0.314,0.446-0.414,0.738c-0.101,0.292-0.15,0.626-0.15,1.002S744.82,1261.974,744.921,1262.266z"/>
	<path fill="#FFFFFF" d="M754.358,1255.587l-3.552,8.965h-0.864l3.54-8.965H754.358z"/>
	<path fill="#FFFFFF" d="M755.931,1255.791v3.276h0.023c0.08-0.192,0.192-0.354,0.337-0.486c0.144-0.132,0.306-0.239,0.485-0.323
		c0.181-0.084,0.368-0.146,0.564-0.187c0.195-0.04,0.386-0.06,0.569-0.06c0.408,0,0.748,0.056,1.021,0.168
		c0.271,0.111,0.492,0.268,0.66,0.468s0.286,0.438,0.354,0.714c0.068,0.276,0.103,0.582,0.103,0.918v4.08h-1.021v-4.2
		c0-0.384-0.112-0.688-0.336-0.912c-0.224-0.224-0.532-0.336-0.924-0.336c-0.312,0-0.582,0.048-0.81,0.145
		c-0.229,0.096-0.419,0.231-0.57,0.407c-0.152,0.177-0.267,0.383-0.342,0.618c-0.076,0.236-0.114,0.494-0.114,0.774v3.504h-1.021
		v-8.568H755.931z"/>
	<path fill="#FFFFFF" d="M761.438,1259.985c0.128-0.396,0.32-0.74,0.576-1.032s0.571-0.521,0.948-0.689
		c0.376-0.168,0.808-0.252,1.296-0.252c0.495,0,0.93,0.084,1.302,0.252s0.686,0.397,0.942,0.689
		c0.256,0.292,0.447,0.637,0.575,1.032c0.128,0.396,0.192,0.822,0.192,1.278s-0.064,0.88-0.192,1.271
		c-0.128,0.393-0.319,0.734-0.575,1.026c-0.257,0.292-0.57,0.52-0.942,0.684s-0.807,0.246-1.302,0.246
		c-0.488,0-0.92-0.082-1.296-0.246c-0.377-0.164-0.692-0.392-0.948-0.684s-0.448-0.634-0.576-1.026
		c-0.128-0.392-0.192-0.815-0.192-1.271S761.311,1260.382,761.438,1259.985z M762.477,1262.266c0.1,0.292,0.238,0.536,0.414,0.731
		c0.176,0.196,0.382,0.347,0.618,0.45c0.235,0.104,0.485,0.156,0.75,0.156c0.264,0,0.514-0.052,0.75-0.156
		c0.235-0.104,0.441-0.254,0.617-0.45c0.177-0.195,0.314-0.439,0.414-0.731c0.101-0.292,0.15-0.626,0.15-1.002
		s-0.05-0.71-0.15-1.002c-0.1-0.292-0.237-0.538-0.414-0.738c-0.176-0.2-0.382-0.352-0.617-0.456
		c-0.236-0.104-0.486-0.156-0.75-0.156c-0.265,0-0.515,0.053-0.75,0.156c-0.236,0.104-0.442,0.256-0.618,0.456
		s-0.314,0.446-0.414,0.738c-0.101,0.292-0.15,0.626-0.15,1.002S762.376,1261.974,762.477,1262.266z"/>
	<path fill="#FFFFFF" d="M769.43,1258.155v0.912h0.024c0.464-0.704,1.132-1.056,2.004-1.056c0.384,0,0.732,0.08,1.044,0.239
		c0.312,0.16,0.532,0.433,0.66,0.816c0.208-0.336,0.481-0.596,0.822-0.78c0.34-0.184,0.714-0.275,1.122-0.275
		c0.312,0,0.594,0.034,0.846,0.102c0.252,0.068,0.468,0.174,0.648,0.318c0.18,0.144,0.319,0.33,0.42,0.558
		c0.1,0.229,0.149,0.502,0.149,0.822v4.548h-1.02v-4.068c0-0.191-0.017-0.372-0.048-0.54c-0.032-0.168-0.093-0.313-0.181-0.438
		s-0.21-0.222-0.366-0.294c-0.155-0.072-0.357-0.108-0.605-0.108c-0.504,0-0.9,0.145-1.188,0.433
		c-0.287,0.288-0.432,0.672-0.432,1.151v3.864h-1.02v-4.068c0-0.199-0.019-0.384-0.055-0.552s-0.098-0.313-0.186-0.438
		s-0.206-0.221-0.354-0.288c-0.147-0.068-0.338-0.103-0.569-0.103c-0.297,0-0.551,0.061-0.763,0.181
		c-0.212,0.119-0.384,0.264-0.516,0.432s-0.228,0.342-0.288,0.521c-0.06,0.181-0.09,0.33-0.09,0.45v3.864h-1.021v-6.204H769.43z"/>
	<path fill="#FFFFFF" d="M783.099,1263.963c-0.464,0.353-1.048,0.528-1.752,0.528c-0.496,0-0.926-0.08-1.29-0.24
		c-0.364-0.159-0.67-0.384-0.918-0.672s-0.435-0.632-0.559-1.031c-0.124-0.4-0.193-0.836-0.21-1.309
		c0-0.472,0.072-0.904,0.217-1.296c0.144-0.392,0.346-0.732,0.605-1.02c0.26-0.288,0.568-0.513,0.924-0.673
		c0.356-0.159,0.746-0.239,1.17-0.239c0.553,0,1.01,0.113,1.374,0.342c0.364,0.228,0.656,0.518,0.876,0.87
		c0.221,0.352,0.372,0.736,0.456,1.151c0.084,0.416,0.118,0.812,0.103,1.188h-4.645c-0.008,0.271,0.024,0.53,0.097,0.773
		c0.071,0.244,0.188,0.461,0.348,0.648c0.16,0.188,0.364,0.338,0.612,0.45c0.247,0.112,0.54,0.168,0.876,0.168
		c0.432,0,0.786-0.1,1.062-0.3c0.276-0.2,0.458-0.504,0.546-0.912h1.008C783.862,1263.087,783.562,1263.611,783.099,1263.963z
		 M782.853,1259.979c-0.092-0.216-0.216-0.402-0.372-0.559c-0.156-0.155-0.34-0.279-0.552-0.371
		c-0.212-0.093-0.446-0.139-0.702-0.139c-0.264,0-0.502,0.046-0.714,0.139c-0.212,0.092-0.395,0.218-0.546,0.378
		c-0.152,0.16-0.272,0.346-0.36,0.558s-0.14,0.438-0.156,0.678h3.564C782.998,1260.424,782.944,1260.195,782.853,1259.979z"/>
</g>
</svg>
