<?xml version="1.0" encoding="utf-8"?>
<!-- Generator: Adobe Illustrator 17.0.0, SVG Export Plug-In . SVG Version: 6.00 Build 0)  -->
<!DOCTYPE svg PUBLIC "-//W3C//DTD SVG 1.1//EN" "http://www.w3.org/Graphics/SVG/1.1/DTD/svg11.dtd">
<svg version="1.1" id="_x31_2-Column_Grid" xmlns="http://www.w3.org/2000/svg" xmlns:xlink="http://www.w3.org/1999/xlink" x="0px"
	 y="0px" width="1100px" height="2400px" viewBox="0 0 1100 2400" enable-background="new 0 0 1100 2400" xml:space="preserve">
<rect fill="#FFFFFF" width="1100" height="2400"/>
<g>
	<circle fill="#F7C1B2" cx="110" cy="75" r="30"/>
</g>
<rect x="960" y="70" fill="#F7C1B2" width="60" height="10"/>
<rect x="880" y="70" fill="#FEF3EF" width="60" height="10"/>
<rect x="801" y="70" fill="#FEF3EF" width="60" height="10"/>
<rect x="720" y="70" fill="#FEF3EF" width="60" height="10"/>
<rect x="640" y="70" fill="#FEF3EF" width="60" height="10"/>
<rect x="560" y="70" fill="#FEF3EF" width="60" height="10"/>
<g>
	<g>
		<path fill="#F7C1B2" d="M161.783,67.85h5.365c1.44,0,2.575,0.414,3.295,1.116c0.522,0.54,0.81,1.207,0.81,2.017v0.036
			c0,1.638-1.008,2.485-1.999,2.917c1.494,0.45,2.701,1.314,2.701,3.043v0.036c0,2.161-1.818,3.439-4.573,3.439h-5.6L161.783,67.85
			L161.783,67.85z M166.914,73.468c1.71,0,2.899-0.774,2.899-2.251v-0.036c0-1.242-0.99-2.053-2.791-2.053h-3.835v4.339h3.727
			V73.468z M167.418,79.176c1.909,0,3.097-0.846,3.097-2.251v-0.036c0-1.368-1.152-2.161-3.349-2.161h-3.979v4.448
			C163.187,79.176,167.418,79.176,167.418,79.176z"/>
		<path fill="#F7C1B2" d="M174.4,76.925v-5.78h1.387v5.438c0,1.729,0.936,2.809,2.575,2.809c1.584,0,2.791-1.17,2.791-2.917v-5.33
			h1.369v9.309h-1.369v-1.62c-0.63,1.008-1.584,1.818-3.187,1.818C175.714,80.652,174.4,79.139,174.4,76.925z"/>
		<path fill="#F7C1B2" d="M184.858,79.266l0.702-0.99c1.008,0.756,2.125,1.188,3.223,1.188c1.117,0,1.927-0.576,1.927-1.477v-0.036
			c0-0.936-1.098-1.296-2.323-1.639c-1.458-0.414-3.079-0.918-3.079-2.629v-0.036c0-1.603,1.333-2.665,3.169-2.665
			c1.135,0,2.395,0.396,3.349,1.026l-0.63,1.044c-0.864-0.558-1.855-0.9-2.755-0.9c-1.099,0-1.801,0.576-1.801,1.351v0.036
			c0,0.882,1.152,1.224,2.395,1.603c1.44,0.432,2.989,0.99,2.989,2.665v0.036c0,1.765-1.458,2.791-3.313,2.791
			C187.378,80.634,185.902,80.112,184.858,79.266z"/>
		<path fill="#F7C1B2" d="M194.632,67.58h1.584v1.53h-1.584V67.58z M194.722,71.145h1.387v9.309h-1.387V71.145z"/>
		<path fill="#F7C1B2" d="M199.33,71.145h1.387v1.621c0.612-1.008,1.584-1.819,3.187-1.819c2.25,0,3.565,1.512,3.565,3.727v5.78
			h-1.387v-5.438c0-1.729-0.936-2.809-2.575-2.809c-1.603,0-2.791,1.17-2.791,2.917v5.33h-1.387L199.33,71.145L199.33,71.145z"/>
		<path fill="#F7C1B2" d="M214.523,79.464c1.278,0,2.179-0.522,2.935-1.314l0.864,0.774c-0.936,1.044-2.07,1.747-3.835,1.747
			c-2.557,0-4.646-1.963-4.646-4.861c0-2.701,1.891-4.862,4.465-4.862c2.755,0,4.339,2.197,4.339,4.933c0,0.126,0,0.27-0.018,0.486
			h-7.382C211.444,78.329,212.884,79.464,214.523,79.464z M217.242,75.25c-0.162-1.692-1.134-3.133-2.971-3.133
			c-1.602,0-2.827,1.332-3.024,3.133H217.242z"/>
		<path fill="#F7C1B2" d="M220.299,79.266l0.702-0.99c1.008,0.756,2.125,1.188,3.223,1.188c1.117,0,1.927-0.576,1.927-1.477v-0.036
			c0-0.936-1.098-1.296-2.323-1.639c-1.458-0.414-3.079-0.918-3.079-2.629v-0.036c0-1.603,1.333-2.665,3.169-2.665
			c1.135,0,2.395,0.396,3.349,1.026l-0.63,1.044c-0.864-0.558-1.855-0.9-2.755-0.9c-1.099,0-1.801,0.576-1.801,1.351v0.036
			c0,0.882,1.152,1.224,2.395,1.603c1.44,0.432,2.989,0.99,2.989,2.665v0.036c0,1.765-1.458,2.791-3.313,2.791
			C222.82,80.634,221.343,80.112,220.299,79.266z"/>
		<path fill="#F7C1B2" d="M229.083,79.266l0.702-0.99c1.008,0.756,2.125,1.188,3.223,1.188c1.117,0,1.927-0.576,1.927-1.477v-0.036
			c0-0.936-1.098-1.296-2.323-1.639c-1.458-0.414-3.079-0.918-3.079-2.629v-0.036c0-1.603,1.333-2.665,3.169-2.665
			c1.135,0,2.395,0.396,3.349,1.026l-0.63,1.044c-0.864-0.558-1.855-0.9-2.755-0.9c-1.099,0-1.801,0.576-1.801,1.351v0.036
			c0,0.882,1.152,1.224,2.395,1.603c1.44,0.432,2.989,0.99,2.989,2.665v0.036c0,1.765-1.458,2.791-3.313,2.791
			C231.604,80.634,230.127,80.112,229.083,79.266z"/>
		<path fill="#F7C1B2" d="M251.567,78.671c-1.152,1.242-2.484,1.962-4.123,1.962c-2.269,0-3.961-1.422-3.961-3.529v-0.036
			c0-1.675,1.117-2.881,3.043-3.637c-0.864-1.008-1.26-1.782-1.26-2.773v-0.036c0-1.657,1.333-2.989,3.331-2.989
			c1.765,0,3.061,1.278,3.061,2.845v0.036c0,1.603-1.134,2.629-2.971,3.277l2.881,2.935c0.558-0.81,1.062-1.765,1.513-2.809
			l1.17,0.54c-0.558,1.188-1.134,2.269-1.819,3.169l2.197,2.251l-1.081,0.828L251.567,78.671z M250.703,77.789l-3.367-3.475
			c-1.675,0.612-2.413,1.639-2.413,2.701v0.036c0,1.351,1.081,2.377,2.629,2.377C248.741,79.427,249.785,78.797,250.703,77.789z
			 M250.325,70.587v-0.036c0-1.008-0.756-1.746-1.783-1.746c-1.134,0-1.909,0.792-1.909,1.819v0.036
			c0,0.738,0.306,1.296,1.261,2.323C249.497,72.441,250.325,71.667,250.325,70.587z"/>
		<path fill="#F7C1B2" d="M261.825,74.188v-0.036c0-3.565,2.665-6.518,6.374-6.518c2.287,0,3.655,0.81,4.916,1.999l-0.972,1.044
			c-1.062-1.008-2.25-1.729-3.961-1.729c-2.791,0-4.879,2.269-4.879,5.167v0.036c0,2.917,2.107,5.204,4.879,5.204
			c1.729,0,2.863-0.666,4.069-1.818l0.937,0.918c-1.314,1.332-2.755,2.215-5.042,2.215C264.508,80.67,261.825,77.807,261.825,74.188
			z"/>
		<path fill="#F7C1B2" d="M274.676,75.844v-0.036c0-2.629,2.053-4.862,4.862-4.862c2.791,0,4.843,2.197,4.843,4.825v0.036
			c0,2.629-2.071,4.861-4.879,4.861C276.711,80.67,274.676,78.473,274.676,75.844z M282.959,75.844v-0.036
			c0-1.999-1.495-3.637-3.457-3.637c-2.017,0-3.403,1.638-3.403,3.601v0.036c0,1.999,1.477,3.619,3.439,3.619
			C281.555,79.427,282.959,77.807,282.959,75.844z"/>
		<path fill="#F7C1B2" d="M286.358,78.563h1.657v1.891h-1.657V78.563z"/>
	</g>
</g>
<rect y="150" fill="#FBE6E0" width="1100" height="600"/>
<rect x="160" y="366" fill="#FEF3EF" width="140" height="20"/>
<rect x="320" y="366" fill="#FEF3EF" width="220" height="20"/>
<rect x="560" y="366" fill="#FEF3EF" width="60.25" height="20"/>
<rect x="640" y="366" fill="#FEF3EF" width="140" height="20"/>
<rect x="800" y="366" fill="#FEF3EF" width="140" height="20"/>
<rect x="239" y="406" fill="#FEF3EF" width="141" height="20"/>
<rect x="400" y="406" fill="#FEF3EF" width="60" height="20"/>
<rect x="480" y="406" fill="#FEF3EF" width="220" height="20"/>
<rect x="720" y="406" fill="#FEF3EF" width="140" height="20"/>
<g>
	<rect x="480" y="925" fill="#FBE6E0" width="60" height="20"/>
	<rect x="560" y="925" fill="#FBE6E0" width="140" height="20"/>
	<rect x="720" y="925" fill="#FBE6E0" width="60" height="20"/>
	<rect x="800" y="925" fill="#FBE6E0" width="220" height="20"/>
	<rect x="480" y="955" fill="#FBE6E0" width="140" height="20"/>
	<rect x="640" y="955" fill="#FBE6E0" width="220" height="20"/>
	<rect x="480" y="995" fill="#FEF3EF" width="140" height="10"/>
	<rect x="640" y="995" fill="#FEF3EF" width="60" height="10"/>
	<rect x="720" y="995" fill="#FEF3EF" width="60" height="10"/>
	<rect x="800" y="995" fill="#FEF3EF" width="140" height="10"/>
	<rect x="480" y="1055" fill="#FEF3EF" width="60" height="10"/>
	<rect x="800" y="1035" fill="#FEF3EF" width="60" height="10"/>
	<rect x="560" y="1015" fill="#FEF3EF" width="110" height="10"/>
	<rect x="880" y="1035" fill="#FEF3EF" width="60" height="10"/>
	<rect x="880" y="1055" fill="#FEF3EF" width="30" height="10"/>
	<rect x="560.125" y="1055" fill="#FEF3EF" width="140" height="10"/>
	<rect x="720" y="1055" fill="#FEF3EF" width="140" height="10"/>
	<rect x="480" y="1035" fill="#FEF3EF" width="140" height="10"/>
	<rect x="640" y="1035" fill="#FEF3EF" width="140" height="10"/>
	<rect x="480" y="1015" fill="#FEF3EF" width="60" height="10"/>
	<rect x="690.062" y="1015" fill="#FEF3EF" width="219.875" height="10"/>
</g>
<g>
	<path fill="#F6B4A2" d="M205.787,290.536h-8.948v-5.965h24.364v5.965h-8.947v23.44h-6.469V290.536z"/>
	<path fill="#F6B4A2" d="M227.958,284.571h6.469v11.636h11.93v-11.636h6.469v29.405h-6.469v-11.804h-11.93v11.804h-6.469
		L227.958,284.571L227.958,284.571z"/>
	<path fill="#F6B4A2" d="M262.431,284.571h22.18v5.755h-15.753v5.965h13.863v5.755h-13.863v6.175h15.963v5.755h-22.39
		L262.431,284.571L262.431,284.571z"/>
	<path fill="#F6B4A2" d="M308.211,284.571h6.469v23.524h14.661v5.881h-21.129v-29.405H308.211z"/>
	<path fill="#F6B4A2" d="M347.457,284.361h5.965l12.602,29.615h-6.763l-2.688-6.595h-12.434l-2.688,6.595h-6.595L347.457,284.361z
		 M354.262,301.668l-3.907-9.536l-3.907,9.536H354.262z"/>
	<path fill="#F6B4A2" d="M372.596,284.571h13.442c3.738,0,6.637,1.05,8.569,2.983c1.638,1.638,2.521,3.949,2.521,6.721v0.084
		c0,4.747-2.562,7.729-6.301,9.115l7.184,10.502h-7.562l-6.301-9.41h-5.083v9.41h-6.469L372.596,284.571L372.596,284.571z
		 M385.618,298.853c3.151,0,4.957-1.68,4.957-4.159v-0.084c0-2.772-1.932-4.201-5.083-4.201h-6.427v8.443h6.553V298.853z"/>
	<path fill="#F6B4A2" d="M403.591,299.357v-0.084c0-8.359,6.511-15.207,15.417-15.207c5.293,0,8.485,1.428,11.552,4.033
		l-4.075,4.915c-2.269-1.89-4.285-2.983-7.688-2.983c-4.705,0-8.443,4.159-8.443,9.158v0.084c0,5.377,3.696,9.326,8.905,9.326
		c2.353,0,4.453-0.588,6.091-1.764v-4.201h-6.511v-5.587h12.771v12.77c-3.025,2.562-7.184,4.663-12.561,4.663
		C409.892,314.48,403.591,308.053,403.591,299.357z"/>
	<path fill="#F6B4A2" d="M440.518,284.571h22.18v5.755h-15.753v5.965h13.863v5.755h-13.863v6.175h15.963v5.755h-22.39V284.571z"/>
	<path fill="#F6B4A2" d="M484.281,309.691l3.823-4.579c2.646,2.184,5.419,3.571,8.78,3.571c2.646,0,4.243-1.05,4.243-2.772v-0.084
		c0-1.638-1.008-2.479-5.923-3.739c-5.923-1.512-9.746-3.15-9.746-8.99v-0.084c0-5.335,4.285-8.864,10.292-8.864
		c4.285,0,7.939,1.344,10.922,3.739l-3.361,4.873c-2.604-1.806-5.167-2.898-7.645-2.898c-2.479,0-3.781,1.134-3.781,2.562v0.084
		c0,1.932,1.26,2.562,6.343,3.865c5.965,1.554,9.326,3.697,9.326,8.822v0.084c0,5.839-4.453,9.116-10.796,9.116
		C492.305,314.396,487.81,312.842,484.281,309.691z"/>
	<path fill="#F6B4A2" d="M513.761,299.357v-0.084c0-8.359,6.301-15.207,15.333-15.207c5.545,0,8.864,1.848,11.594,4.537
		l-4.117,4.747c-2.269-2.058-4.579-3.319-7.52-3.319c-4.957,0-8.527,4.117-8.527,9.158v0.084c0,5.041,3.486,9.242,8.527,9.242
		c3.361,0,5.419-1.344,7.729-3.445l4.117,4.159c-3.024,3.235-6.385,5.251-12.056,5.251
		C520.188,314.48,513.761,307.801,513.761,299.357z"/>
	<path fill="#F6B4A2" d="M547.995,284.571h13.442c3.738,0,6.637,1.05,8.569,2.983c1.638,1.638,2.521,3.949,2.521,6.721v0.084
		c0,4.747-2.562,7.729-6.301,9.115l7.184,10.502h-7.562l-6.301-9.41h-5.083v9.41h-6.469L547.995,284.571L547.995,284.571z
		 M561.017,298.853c3.151,0,4.957-1.68,4.957-4.159v-0.084c0-2.772-1.932-4.201-5.083-4.201h-6.427v8.443h6.553V298.853z"/>
	<path fill="#F6B4A2" d="M580.852,284.571h22.18v5.755h-15.753v5.965h13.863v5.755h-13.863v6.175h15.963v5.755h-22.39V284.571z"/>
	<path fill="#F6B4A2" d="M611.73,284.571h22.18v5.755h-15.753v5.965h13.863v5.755h-13.863v6.175h15.963v5.755h-22.39V284.571z"/>
	<path fill="#F6B4A2" d="M642.608,284.571h5.966l13.778,18.105v-18.105h6.385v29.405h-5.503l-14.24-18.693v18.693h-6.386
		L642.608,284.571L642.608,284.571z"/>
	<path fill="#F6B4A2" d="M690.907,284.571h7.142l7.688,20.71l7.688-20.71h6.973l-11.888,29.615h-5.713L690.907,284.571z"/>
	<path fill="#F6B4A2" d="M726.969,284.571h22.181v5.755h-15.753v5.965h13.862v5.755h-13.862v6.175h15.963v5.755h-22.391
		L726.969,284.571L726.969,284.571z"/>
	<path fill="#F6B4A2" d="M757.847,284.571h13.442c3.739,0,6.638,1.05,8.57,2.983c1.638,1.638,2.52,3.949,2.52,6.721v0.084
		c0,4.747-2.562,7.729-6.301,9.115l7.184,10.502H775.7l-6.301-9.41h-5.083v9.41h-6.47L757.847,284.571L757.847,284.571z
		 M770.869,298.853c3.15,0,4.957-1.68,4.957-4.159v-0.084c0-2.772-1.933-4.201-5.083-4.201h-6.427v8.443h6.553V298.853z"/>
	<path fill="#F6B4A2" d="M788.359,309.691l3.822-4.579c2.646,2.184,5.419,3.571,8.779,3.571c2.646,0,4.243-1.05,4.243-2.772v-0.084
		c0-1.638-1.009-2.479-5.923-3.739c-5.924-1.512-9.746-3.15-9.746-8.99v-0.084c0-5.335,4.285-8.864,10.292-8.864
		c4.284,0,7.939,1.344,10.922,3.739l-3.36,4.873c-2.604-1.806-5.167-2.898-7.646-2.898s-3.781,1.134-3.781,2.562v0.084
		c0,1.932,1.261,2.562,6.344,3.865c5.965,1.554,9.325,3.697,9.325,8.822v0.084c0,5.839-4.452,9.116-10.796,9.116
		C796.383,314.396,791.888,312.842,788.359,309.691z"/>
	<path fill="#F6B4A2" d="M819.796,284.571h6.47v29.405h-6.47V284.571z"/>
	<path fill="#F6B4A2" d="M834.425,299.357v-0.084c0-8.359,6.595-15.207,15.669-15.207c9.073,0,15.584,6.763,15.584,15.123v0.084
		c0,8.36-6.595,15.207-15.668,15.207C840.936,314.48,834.425,307.717,834.425,299.357z M858.915,299.357v-0.084
		c0-5.041-3.696-9.242-8.905-9.242s-8.822,4.117-8.822,9.158v0.084c0,5.041,3.697,9.242,8.906,9.242
		S858.915,304.398,858.915,299.357z"/>
	<path fill="#F6B4A2" d="M872.938,284.571h5.966l13.778,18.105v-18.105h6.385v29.405h-5.503l-14.24-18.693v18.693h-6.386
		L872.938,284.571L872.938,284.571z"/>
</g>
<circle fill="#FBE6E0" cx="230" cy="995" r="150"/>
<rect y="1250" fill="#FEF3EF" width="1100" height="500"/>
<rect x="320" y="1519" fill="#FFFFFF" width="140" height="10"/>
<rect x="480" y="1519" fill="#FFFFFF" width="60" height="10"/>
<rect x="560" y="1519" fill="#FFFFFF" width="140" height="10"/>
<rect x="720" y="1519" fill="#FFFFFF" width="60" height="10"/>
<rect x="400" y="1539" fill="#FFFFFF" width="220" height="10"/>
<rect x="640" y="1539" fill="#FFFFFF" width="60" height="10"/>
<rect x="320" y="1449" fill="#FBE6E0" width="140" height="20"/>
<rect x="480" y="1449" fill="#FBE6E0" width="60" height="20"/>
<rect x="560.125" y="1449" fill="#FBE6E0" width="219.875" height="20"/>
<rect x="239.333" y="1479" fill="#FBE6E0" width="140.667" height="20"/>
<rect x="400" y="1479" fill="#FBE6E0" width="220" height="20"/>
<rect x="640" y="1479" fill="#FBE6E0" width="60" height="20"/>
<rect x="720" y="1479" fill="#FBE6E0" width="140" height="20"/>
<circle fill="#FEF3EF" cx="150" cy="1905" r="70"/>
<circle fill="#FEF3EF" cx="350" cy="1905" r="70"/>
<circle fill="#FEF3EF" cx="550" cy="1905" r="70"/>
<circle fill="#FEF3EF" cx="750" cy="1905" r="70"/>
<circle fill="#FEF3EF" cx="950" cy="1905" r="70"/>
<rect y="2110" fill="#FBE6E0" width="1100" height="250"/>
<rect y="2360" fill="#F7C1B2" width="1100" height="40"/>
<rect x="80" y="2200" fill="#FEF3EF" width="140" height="10"/>
<rect x="240" y="2200" fill="#FEF3EF" width="60" height="10"/>
<rect x="240" y="2260" fill="#FEF3EF" width="30" height="10"/>
<rect x="161" y="2220" fill="#FEF3EF" width="109" height="10"/>
<rect x="80" y="2220" fill="#FEF3EF" width="60" height="10"/>
<rect x="80" y="2240" fill="#FEF3EF" width="220" height="10"/>
<rect x="80" y="2260" fill="#FEF3EF" width="140" height="10"/>
<rect x="80" y="2002" fill="#FBE6E0" width="140" height="10"/>
<rect x="280" y="2002" fill="#FBE6E0" width="140" height="10"/>
<rect x="480" y="2002" fill="#FBE6E0" width="140" height="10"/>
<rect x="680" y="2002" fill="#FBE6E0" width="140" height="10"/>
<rect x="880" y="2002" fill="#FBE6E0" width="140" height="10"/>
<rect x="800" y="2200" fill="#FEF3EF" width="140" height="10"/>
<rect x="960" y="2200" fill="#FEF3EF" width="60" height="10"/>
<rect x="960" y="2260" fill="#FEF3EF" width="30" height="10"/>
<rect x="960" y="2220" fill="#FEF3EF" width="30" height="10"/>
<rect x="800" y="2220" fill="#FEF3EF" width="140" height="10"/>
<rect x="800" y="2200" fill="#FEF3EF" width="215" height="10"/>
<rect x="880" y="2240" fill="#FEF3EF" width="140" height="10"/>
<rect x="800" y="2240" fill="#FEF3EF" width="60" height="10"/>
<rect x="800" y="2260" fill="#FEF3EF" width="140" height="10"/>
<rect x="80" y="2375" fill="#FEF3EF" width="140" height="10"/>
<rect x="240" y="2375" fill="#FEF3EF" width="60" height="10"/>
<rect x="832" y="2375" fill="#FEF3EF" width="188" height="10"/>
<rect x="400" y="2200" fill="#FEF3EF" width="60" height="10"/>
<rect x="400" y="2260" fill="#FEF3EF" width="60" height="10"/>
<rect x="480" y="2200" fill="#FEF3EF" width="60" height="10"/>
<rect x="640" y="2220" fill="#FEF3EF" width="30" height="10"/>
<rect x="560" y="2200" fill="#FEF3EF" width="140" height="10"/>
<rect x="400" y="2220" fill="#FEF3EF" width="220" height="10"/>
<rect x="400" y="2240" fill="#FEF3EF" width="140.333" height="10"/>
<rect x="559.833" y="2240" fill="#FEF3EF" width="140.333" height="10"/>
<rect x="480" y="2260" fill="#FEF3EF" width="190" height="10"/>
<g>
	<path fill="#FFFFFF" d="M700,580c0,19.25-15.75,35-35,35H435c-19.25,0-35-15.75-35-35l0,0c0-19.25,15.75-35,35-35h230
		C684.25,545,700,560.75,700,580L700,580z"/>
</g>
<rect x="480" y="575" fill="#FBE6E0" width="140" height="10"/>
</svg>
