<?xml version="1.0" encoding="utf-8"?>
<!-- Generator: Adobe Illustrator 17.0.0, SVG Export Plug-In . SVG Version: 6.00 Build 0)  -->
<!DOCTYPE svg PUBLIC "-//W3C//DTD SVG 1.1//EN" "http://www.w3.org/Graphics/SVG/1.1/DTD/svg11.dtd">
<svg version="1.1" id="_x31_2-Column_Grid" xmlns="http://www.w3.org/2000/svg" xmlns:xlink="http://www.w3.org/1999/xlink" x="0px"
	 y="0px" width="780px" height="3017px" viewBox="0 0 780 3017" enable-background="new 0 0 780 3017" xml:space="preserve">
<rect fill="#FFFFFF" width="780" height="3017"/>
<g>
	<circle fill="#F7C1B2" cx="390" cy="80" r="30"/>
</g>
<g>
	<g>
		<path fill="#F7C1B2" d="M327.092,124.849h5.365c1.44,0,2.575,0.414,3.295,1.116c0.522,0.54,0.811,1.207,0.811,2.017v0.036
			c0,1.639-1.009,2.485-1.999,2.917c1.494,0.45,2.701,1.314,2.701,3.043v0.036c0,2.16-1.818,3.438-4.573,3.438h-5.6V124.849z
			 M332.223,130.466c1.711,0,2.899-0.774,2.899-2.25v-0.036c0-1.242-0.99-2.053-2.791-2.053h-3.835v4.339H332.223z M332.728,136.174
			c1.908,0,3.097-0.846,3.097-2.25v-0.036c0-1.368-1.152-2.161-3.35-2.161h-3.979v4.447L332.728,136.174L332.728,136.174z"/>
		<path fill="#F7C1B2" d="M339.709,133.923v-5.78h1.387v5.438c0,1.729,0.936,2.809,2.574,2.809c1.585,0,2.791-1.17,2.791-2.917
			v-5.33h1.368v9.309h-1.368v-1.62c-0.63,1.008-1.585,1.818-3.187,1.818C341.023,137.65,339.709,136.138,339.709,133.923z"/>
		<path fill="#F7C1B2" d="M350.167,136.264l0.702-0.991c1.008,0.757,2.124,1.188,3.223,1.188c1.116,0,1.927-0.576,1.927-1.477
			v-0.036c0-0.936-1.099-1.296-2.323-1.639c-1.458-0.414-3.078-0.918-3.078-2.628v-0.036c0-1.603,1.332-2.665,3.169-2.665
			c1.134,0,2.395,0.396,3.349,1.026l-0.63,1.044c-0.864-0.558-1.854-0.9-2.755-0.9c-1.099,0-1.801,0.576-1.801,1.351v0.036
			c0,0.883,1.152,1.225,2.395,1.603c1.44,0.433,2.989,0.99,2.989,2.665v0.036c0,1.765-1.459,2.791-3.313,2.791
			C352.688,137.632,351.211,137.11,350.167,136.264z"/>
		<path fill="#F7C1B2" d="M359.94,124.579h1.585v1.53h-1.585V124.579z M360.03,128.144h1.387v9.309h-1.387V128.144z"/>
		<path fill="#F7C1B2" d="M364.639,128.144h1.387v1.621c0.611-1.008,1.584-1.819,3.187-1.819c2.251,0,3.565,1.513,3.565,3.728v5.779
			h-1.387v-5.438c0-1.729-0.937-2.809-2.575-2.809c-1.603,0-2.79,1.17-2.79,2.917v5.329h-1.387V128.144z"/>
		<path fill="#F7C1B2" d="M379.832,136.462c1.278,0,2.179-0.522,2.935-1.314l0.864,0.774c-0.937,1.044-2.07,1.747-3.835,1.747
			c-2.557,0-4.646-1.962-4.646-4.861c0-2.701,1.891-4.862,4.465-4.862c2.755,0,4.34,2.197,4.34,4.934c0,0.126,0,0.271-0.019,0.486
			h-7.382C376.753,135.328,378.193,136.462,379.832,136.462z M382.551,132.249c-0.162-1.692-1.135-3.133-2.971-3.133
			c-1.603,0-2.827,1.332-3.025,3.133H382.551z"/>
		<path fill="#F7C1B2" d="M385.608,136.264l0.702-0.991c1.008,0.757,2.124,1.188,3.223,1.188c1.116,0,1.927-0.576,1.927-1.477
			v-0.036c0-0.936-1.099-1.296-2.323-1.639c-1.458-0.414-3.078-0.918-3.078-2.628v-0.036c0-1.603,1.332-2.665,3.169-2.665
			c1.134,0,2.395,0.396,3.349,1.026l-0.63,1.044c-0.864-0.558-1.854-0.9-2.755-0.9c-1.099,0-1.801,0.576-1.801,1.351v0.036
			c0,0.883,1.152,1.225,2.395,1.603c1.44,0.433,2.989,0.99,2.989,2.665v0.036c0,1.765-1.459,2.791-3.313,2.791
			C388.129,137.632,386.652,137.11,385.608,136.264z"/>
		<path fill="#F7C1B2" d="M394.393,136.264l0.702-0.991c1.008,0.757,2.124,1.188,3.223,1.188c1.116,0,1.927-0.576,1.927-1.477
			v-0.036c0-0.936-1.099-1.296-2.323-1.639c-1.458-0.414-3.078-0.918-3.078-2.628v-0.036c0-1.603,1.332-2.665,3.169-2.665
			c1.134,0,2.395,0.396,3.349,1.026l-0.63,1.044c-0.864-0.558-1.854-0.9-2.755-0.9c-1.099,0-1.801,0.576-1.801,1.351v0.036
			c0,0.883,1.152,1.225,2.395,1.603c1.44,0.433,2.989,0.99,2.989,2.665v0.036c0,1.765-1.459,2.791-3.313,2.791
			C396.913,137.632,395.437,137.11,394.393,136.264z"/>
		<path fill="#F7C1B2" d="M416.876,135.67c-1.152,1.242-2.484,1.962-4.123,1.962c-2.269,0-3.961-1.422-3.961-3.529v-0.036
			c0-1.675,1.116-2.881,3.043-3.637c-0.864-1.008-1.261-1.783-1.261-2.773v-0.036c0-1.657,1.333-2.989,3.331-2.989
			c1.765,0,3.062,1.278,3.062,2.845v0.036c0,1.603-1.135,2.628-2.972,3.277l2.881,2.935c0.559-0.811,1.062-1.765,1.513-2.809
			l1.171,0.54c-0.559,1.188-1.135,2.269-1.819,3.169l2.197,2.25l-1.08,0.829L416.876,135.67z M416.012,134.788l-3.366-3.475
			c-1.675,0.612-2.413,1.639-2.413,2.701v0.036c0,1.351,1.08,2.376,2.629,2.376C414.05,136.426,415.094,135.796,416.012,134.788z
			 M415.634,127.585v-0.036c0-1.008-0.756-1.747-1.782-1.747c-1.135,0-1.908,0.792-1.908,1.819v0.036
			c0,0.738,0.306,1.297,1.26,2.323C414.806,129.44,415.634,128.666,415.634,127.585z"/>
		<path fill="#F7C1B2" d="M427.134,131.187v-0.036c0-3.565,2.665-6.518,6.374-6.518c2.286,0,3.655,0.81,4.915,1.998l-0.972,1.045
			c-1.062-1.009-2.251-1.729-3.962-1.729c-2.79,0-4.879,2.269-4.879,5.167v0.036c0,2.917,2.106,5.204,4.879,5.204
			c1.729,0,2.863-0.666,4.069-1.818l0.937,0.918c-1.314,1.332-2.755,2.214-5.041,2.214
			C429.816,137.668,427.134,134.806,427.134,131.187z"/>
		<path fill="#F7C1B2" d="M439.985,132.843v-0.036c0-2.629,2.053-4.862,4.861-4.862c2.791,0,4.844,2.197,4.844,4.826v0.036
			c0,2.628-2.071,4.861-4.88,4.861C442.02,137.668,439.985,135.472,439.985,132.843z M448.268,132.843v-0.036
			c0-1.999-1.494-3.637-3.457-3.637c-2.017,0-3.403,1.639-3.403,3.601v0.036c0,1.999,1.477,3.619,3.439,3.619
			C446.863,136.426,448.268,134.806,448.268,132.843z"/>
		<path fill="#F7C1B2" d="M451.667,135.562h1.657v1.891h-1.657V135.562z"/>
	</g>
</g>
<rect y="268" fill="#FBE6E0" width="780" height="600"/>
<rect x="80" y="484" fill="#FEF3EF" width="140" height="20"/>
<rect x="240" y="484" fill="#FEF3EF" width="220" height="20"/>
<rect x="480" y="484" fill="#FEF3EF" width="60" height="20"/>
<rect x="560" y="484" fill="#FEF3EF" width="140" height="20"/>
<rect x="159" y="524" fill="#FEF3EF" width="61" height="20"/>
<rect x="240" y="524" fill="#FEF3EF" width="60" height="20"/>
<rect x="320" y="524" fill="#FEF3EF" width="220" height="20"/>
<rect x="560" y="524" fill="#FEF3EF" width="60" height="20"/>
<rect x="560" y="1333" fill="#FBE6E0" width="60" height="20"/>
<rect x="240" y="1303" fill="#FBE6E0" width="140" height="20"/>
<rect x="80" y="1303" fill="#FBE6E0" width="140" height="20"/>
<rect x="400" y="1303" fill="#FBE6E0" width="60" height="20"/>
<rect x="480" y="1303" fill="#FBE6E0" width="220" height="20"/>
<rect x="160" y="1333" fill="#FBE6E0" width="140" height="20"/>
<rect x="320" y="1333" fill="#FBE6E0" width="220" height="20"/>
<rect x="80" y="1383" fill="#FEF3EF" width="220" height="10"/>
<rect x="320" y="1383" fill="#FEF3EF" width="60" height="10"/>
<rect x="240" y="1403" fill="#FEF3EF" width="300" height="10"/>
<rect x="400" y="1383" fill="#FEF3EF" width="60" height="10"/>
<rect x="640" y="1383" fill="#FEF3EF" width="60" height="10"/>
<rect x="480" y="1383" fill="#FEF3EF" width="140" height="10"/>
<rect x="480" y="1423" fill="#FEF3EF" width="60" height="10"/>
<rect x="113" y="1403" fill="#FEF3EF" width="107" height="10"/>
<rect x="560" y="1423" fill="#FEF3EF" width="60" height="10"/>
<rect x="560" y="1403" fill="#FEF3EF" width="110" height="10"/>
<rect x="160" y="1423" fill="#FEF3EF" width="140" height="10"/>
<rect x="320" y="1423" fill="#FEF3EF" width="140" height="10"/>
<g>
	<path fill="#F6B4A2" d="M88.713,412.442h-7.456v-4.971h20.302v4.971h-7.456v19.532h-5.391L88.713,412.442L88.713,412.442z"/>
	<path fill="#F6B4A2" d="M107.272,407.472h5.391v9.696h9.941v-9.696h5.391v24.503h-5.391v-9.836h-9.941v9.836h-5.391V407.472z"/>
	<path fill="#F6B4A2" d="M136.077,407.472h18.482v4.796h-13.126v4.971h11.551v4.795h-11.551v5.146h13.301v4.795h-18.657
		L136.077,407.472L136.077,407.472z"/>
	<path fill="#F6B4A2" d="M174.227,407.472h5.811l6.44,10.361l6.441-10.361h5.811v24.503h-5.355v-15.997l-6.896,10.466h-0.14
		l-6.826-10.361v15.892h-5.286L174.227,407.472L174.227,407.472z"/>
	<path fill="#F6B4A2" d="M206.832,407.472h18.482v4.796h-13.126v4.971h11.551v4.795h-11.551v5.146h13.301v4.795h-18.657
		L206.832,407.472L206.832,407.472z"/>
	<path fill="#F6B4A2" d="M232.641,407.472h9.556c7.701,0,13.021,5.286,13.021,12.182v0.07c0,6.896-5.32,12.251-13.021,12.251h-9.556
		V407.472z M242.197,427.109c4.411,0,7.386-2.976,7.386-7.316v-0.069c0-4.341-2.976-7.386-7.386-7.386h-4.165v14.771H242.197z"/>
	<path fill="#F6B4A2" d="M262.171,407.472h5.39v24.503h-5.39V407.472z"/>
	<path fill="#F6B4A2" d="M275.459,421.474v-14.002h5.391v13.862c0,3.991,1.995,6.056,5.286,6.056c3.29,0,5.286-1.996,5.286-5.88
		v-14.037h5.391V421.3c0,7.42-4.166,11.061-10.747,11.061C279.485,432.359,275.459,428.685,275.459,421.474z"/>
	<path fill="#F6B4A2" d="M304.622,407.472h5.811l6.44,10.361l6.441-10.361h5.811v24.503h-5.355v-15.997l-6.896,10.466h-0.14
		l-6.826-10.361v15.892h-5.286V407.472z"/>
	<path fill="#F6B4A2" d="M348.021,428.404l3.185-3.815c2.206,1.82,4.516,2.976,7.316,2.976c2.205,0,3.535-0.875,3.535-2.311v-0.07
		c0-1.365-0.84-2.065-4.935-3.115c-4.936-1.26-8.121-2.625-8.121-7.49v-0.07c0-4.445,3.57-7.386,8.576-7.386
		c3.571,0,6.616,1.12,9.101,3.115l-2.8,4.061c-2.17-1.505-4.305-2.415-6.371-2.415s-3.15,0.945-3.15,2.135v0.07
		c0,1.61,1.05,2.135,5.286,3.22c4.971,1.295,7.771,3.081,7.771,7.351v0.069c0,4.866-3.71,7.596-8.996,7.596
		C354.707,432.325,350.961,431.029,348.021,428.404z"/>
	<path fill="#F6B4A2" d="M372.675,419.793v-0.069c0-6.966,5.251-12.672,12.776-12.672c4.621,0,7.386,1.54,9.661,3.78l-3.43,3.956
		c-1.89-1.716-3.815-2.766-6.266-2.766c-4.13,0-7.106,3.431-7.106,7.631v0.07c0,4.2,2.905,7.7,7.106,7.7c2.8,0,4.515-1.12,6.44-2.87
		l3.431,3.466c-2.521,2.695-5.321,4.375-10.046,4.375C378.031,432.395,372.675,426.829,372.675,419.793z"/>
	<path fill="#F6B4A2" d="M401.287,407.472h11.201c3.115,0,5.53,0.875,7.141,2.485c1.365,1.365,2.1,3.291,2.1,5.601v0.07
		c0,3.955-2.135,6.44-5.25,7.596l5.986,8.751h-6.301l-5.25-7.841h-4.235v7.841h-5.391v-24.503H401.287z M412.138,419.373
		c2.625,0,4.13-1.4,4.13-3.465v-0.07c0-2.311-1.61-3.5-4.235-3.5h-5.355v7.035H412.138z"/>
	<path fill="#F6B4A2" d="M428.744,407.472h18.482v4.796H434.1v4.971h11.551v4.795H434.1v5.146h13.301v4.795h-18.657V407.472z"/>
	<path fill="#F6B4A2" d="M454.553,407.472h18.482v4.796h-13.126v4.971h11.551v4.795h-11.551v5.146h13.301v4.795h-18.657
		L454.553,407.472L454.553,407.472z"/>
	<path fill="#F6B4A2" d="M480.361,407.472h4.971l11.48,15.087v-15.087h5.321v24.503h-4.586l-11.866-15.577v15.577h-5.32
		L480.361,407.472L480.361,407.472z"/>
	<path fill="#F6B4A2" d="M520.611,407.472h5.951l6.405,17.257l6.405-17.257h5.812l-9.906,24.678h-4.761L520.611,407.472z"/>
	<path fill="#F6B4A2" d="M550.747,407.472h18.481v4.796h-13.126v4.971h11.551v4.795h-11.551v5.146h13.302v4.795h-18.657
		L550.747,407.472L550.747,407.472z"/>
	<path fill="#F6B4A2" d="M576.556,407.472h11.201c3.115,0,5.53,0.875,7.141,2.485c1.365,1.365,2.101,3.291,2.101,5.601v0.07
		c0,3.955-2.136,6.44-5.251,7.596l5.985,8.751h-6.301l-5.25-7.841h-4.235v7.841h-5.391V407.472z M587.406,419.373
		c2.626,0,4.131-1.4,4.131-3.465v-0.07c0-2.311-1.61-3.5-4.235-3.5h-5.355v7.035H587.406z"/>
	<path fill="#F6B4A2" d="M602.062,428.404l3.186-3.815c2.205,1.82,4.516,2.976,7.316,2.976c2.205,0,3.535-0.875,3.535-2.311v-0.07
		c0-1.365-0.841-2.065-4.936-3.115c-4.936-1.26-8.121-2.625-8.121-7.49v-0.07c0-4.445,3.57-7.386,8.576-7.386
		c3.57,0,6.615,1.12,9.101,3.115l-2.8,4.061c-2.171-1.505-4.306-2.415-6.371-2.415s-3.15,0.945-3.15,2.135v0.07
		c0,1.61,1.05,2.135,5.285,3.22c4.971,1.295,7.771,3.081,7.771,7.351v0.069c0,4.866-3.711,7.596-8.996,7.596
		C608.749,432.325,605.003,431.029,602.062,428.404z"/>
	<path fill="#F6B4A2" d="M628.339,407.472h5.391v24.503h-5.391V407.472z"/>
	<path fill="#F6B4A2" d="M640.609,419.793v-0.069c0-6.966,5.495-12.672,13.056-12.672c7.562,0,12.986,5.636,12.986,12.602v0.07
		c0,6.965-5.495,12.671-13.056,12.671S640.609,426.759,640.609,419.793z M661.017,419.793v-0.069c0-4.201-3.081-7.701-7.421-7.701
		c-4.341,0-7.351,3.431-7.351,7.631v0.07c0,4.2,3.08,7.7,7.42,7.7C658.006,427.424,661.017,423.994,661.017,419.793z"/>
	<path fill="#F6B4A2" d="M672.704,407.472h4.971l11.48,15.087v-15.087h5.321v24.503h-4.586l-11.866-15.577v15.577h-5.32
		L672.704,407.472L672.704,407.472z"/>
</g>
<circle fill="#FBE6E0" cx="390" cy="1093" r="150"/>
<rect y="1533" fill="#FEF3EF" width="780" height="350"/>
<rect x="160" y="1727" fill="#FFFFFF" width="140" height="10"/>
<rect x="320" y="1727" fill="#FFFFFF" width="60" height="10"/>
<rect x="400" y="1727" fill="#FFFFFF" width="140" height="10"/>
<rect x="560" y="1727" fill="#FFFFFF" width="60" height="10"/>
<rect x="240" y="1747" fill="#FFFFFF" width="220" height="10"/>
<rect x="480" y="1747" fill="#FFFFFF" width="60" height="10"/>
<rect x="160" y="1657" fill="#FBE6E0" width="140" height="20"/>
<rect x="320" y="1657" fill="#FBE6E0" width="60" height="20"/>
<rect x="400.125" y="1657" fill="#FBE6E0" width="219.875" height="20"/>
<rect x="79.333" y="1687" fill="#FBE6E0" width="140.667" height="20"/>
<rect x="240" y="1687" fill="#FBE6E0" width="220" height="20"/>
<rect x="480" y="1687" fill="#FBE6E0" width="60" height="20"/>
<rect x="560" y="1687" fill="#FBE6E0" width="140" height="20"/>
<circle fill="#FEF3EF" cx="150" cy="2028" r="70"/>
<circle fill="#FEF3EF" cx="388.74" cy="2028" r="70"/>
<circle fill="#FEF3EF" cx="630" cy="2028" r="70"/>
<circle fill="#FEF3EF" cx="270" cy="2260.488" r="70"/>
<circle fill="#FEF3EF" cx="510" cy="2260.488" r="70"/>
<rect y="2442" fill="#FBE6E0" width="780" height="575"/>
<rect y="2977" fill="#F7C1B2" width="780" height="40"/>
<g>
	<rect x="280" y="2517" fill="#FEF3EF" width="140" height="10"/>
	<rect x="440" y="2517" fill="#FEF3EF" width="60" height="10"/>
</g>
<g>
	<rect x="376" y="2537" fill="#FEF3EF" width="109" height="10"/>
	<rect x="295" y="2537" fill="#FEF3EF" width="60" height="10"/>
</g>
<g>
	<rect x="280" y="2557" fill="#FEF3EF" width="220" height="10"/>
</g>
<g>
	<rect x="455" y="2577" fill="#FEF3EF" width="30" height="10"/>
	<rect x="295" y="2577" fill="#FEF3EF" width="140" height="10"/>
</g>
<rect x="80" y="2125" fill="#FBE6E0" width="140" height="10"/>
<rect x="318.74" y="2125" fill="#FBE6E0" width="140" height="10"/>
<rect x="560" y="2125" fill="#FBE6E0" width="140" height="10"/>
<rect x="200" y="2357.488" fill="#FBE6E0" width="140" height="10"/>
<rect x="440" y="2357.488" fill="#FBE6E0" width="140" height="10"/>
<g>
	<rect x="455" y="2827" fill="#FEF3EF" width="30" height="10"/>
	<rect x="295" y="2827" fill="#FEF3EF" width="140" height="10"/>
</g>
<rect x="282.5" y="2807" fill="#FEF3EF" width="215" height="10"/>
<g>
	<rect x="360" y="2847" fill="#FEF3EF" width="140" height="10"/>
	<rect x="280" y="2847" fill="#FEF3EF" width="60" height="10"/>
</g>
<g>
	<rect x="455" y="2867" fill="#FEF3EF" width="30" height="10"/>
	<rect x="295" y="2867" fill="#FEF3EF" width="140" height="10"/>
</g>
<rect x="80" y="2992" fill="#FEF3EF" width="140" height="10"/>
<rect x="240" y="2992" fill="#FEF3EF" width="60" height="10"/>
<rect x="510" y="2992" fill="#FEF3EF" width="188" height="10"/>
<g>
	<rect x="240" y="2662" fill="#FEF3EF" width="60" height="10"/>
	<rect x="320" y="2662" fill="#FEF3EF" width="60" height="10"/>
	<rect x="400" y="2662" fill="#FEF3EF" width="140" height="10"/>
</g>
<g>
	<rect x="495" y="2682" fill="#FEF3EF" width="30" height="10"/>
	<rect x="255" y="2682" fill="#FEF3EF" width="220" height="10"/>
</g>
<g>
	<rect x="240" y="2702" fill="#FEF3EF" width="140.255" height="10"/>
	<rect x="399.745" y="2702" fill="#FEF3EF" width="140.255" height="10"/>
</g>
<g>
	<rect x="255" y="2722" fill="#FEF3EF" width="60" height="10"/>
	<rect x="335" y="2722" fill="#FEF3EF" width="190" height="10"/>
</g>
<g>
	<path fill="#FFFFFF" d="M540,698c0,19.25-15.75,35-35,35H275c-19.25,0-35-15.75-35-35l0,0c0-19.25,15.75-35,35-35h230
		C524.25,663,540,678.75,540,698L540,698z"/>
</g>
<rect x="320" y="693" fill="#FBE6E0" width="140" height="10"/>
<rect x="560" y="183" fill="#F7C1B2" width="60" height="20"/>
<rect x="480" y="183" fill="#FEF3EF" width="60" height="20"/>
<rect x="400" y="183" fill="#FEF3EF" width="60" height="20"/>
<rect x="320" y="183" fill="#FEF3EF" width="60" height="20"/>
<rect x="240" y="183" fill="#FEF3EF" width="60" height="20"/>
<rect x="160" y="183" fill="#FEF3EF" width="60" height="20"/>
</svg>
