<?xml version="1.0" encoding="utf-8"?>
<!-- Generator: Adobe Illustrator 17.0.0, SVG Export Plug-In . SVG Version: 6.00 Build 0)  -->
<!DOCTYPE svg PUBLIC "-//W3C//DTD SVG 1.1//EN" "http://www.w3.org/Graphics/SVG/1.1/DTD/svg11.dtd">
<svg version="1.1" id="_x31_2-Column_Grid" xmlns="http://www.w3.org/2000/svg" xmlns:xlink="http://www.w3.org/1999/xlink" x="0px"
	 y="0px" width="500px" height="3337px" viewBox="0 0 500 3337" enable-background="new 0 0 500 3337" xml:space="preserve">
<rect fill="#FFFFFF" width="500" height="3337"/>
<g>
	<circle fill="#F7C1B2" cx="50" cy="50" r="30"/>
</g>
<g>
	<g>
		<path fill="#F7C1B2" d="M101.783,44.396h5.365c1.44,0,2.575,0.414,3.295,1.116c0.522,0.54,0.81,1.206,0.81,2.017v0.036
			c0,1.638-1.008,2.484-1.999,2.917c1.494,0.45,2.701,1.314,2.701,3.043v0.036c0,2.161-1.818,3.439-4.573,3.439h-5.6V44.396H101.783
			z M106.914,50.014c1.71,0,2.899-0.774,2.899-2.25v-0.036c0-1.243-0.99-2.053-2.791-2.053h-3.835v4.339H106.914z M107.418,55.722
			c1.909,0,3.097-0.846,3.097-2.251v-0.036c0-1.369-1.152-2.161-3.349-2.161h-3.979v4.447L107.418,55.722L107.418,55.722z"/>
		<path fill="#F7C1B2" d="M114.4,53.471v-5.779h1.387v5.438c0,1.729,0.936,2.809,2.575,2.809c1.584,0,2.791-1.17,2.791-2.917v-5.329
			h1.369V57h-1.369v-1.621c-0.63,1.008-1.584,1.819-3.187,1.819C115.714,57.198,114.4,55.686,114.4,53.471z"/>
		<path fill="#F7C1B2" d="M124.858,55.812l0.702-0.99c1.008,0.756,2.125,1.188,3.223,1.188c1.117,0,1.927-0.576,1.927-1.477v-0.036
			c0-0.936-1.098-1.296-2.323-1.638c-1.458-0.415-3.079-0.918-3.079-2.629v-0.036c0-1.602,1.333-2.665,3.169-2.665
			c1.135,0,2.395,0.396,3.349,1.026l-0.63,1.044c-0.864-0.558-1.855-0.9-2.755-0.9c-1.099,0-1.801,0.576-1.801,1.351v0.036
			c0,0.882,1.152,1.225,2.395,1.603c1.44,0.432,2.989,0.99,2.989,2.665v0.036c0,1.765-1.458,2.791-3.313,2.791
			C127.378,57.18,125.902,56.658,124.858,55.812z"/>
		<path fill="#F7C1B2" d="M134.632,44.126h1.584v1.531h-1.584V44.126z M134.722,47.691h1.387V57h-1.387V47.691z"/>
		<path fill="#F7C1B2" d="M139.33,47.691h1.387v1.62c0.612-1.008,1.584-1.818,3.187-1.818c2.25,0,3.565,1.513,3.565,3.727V57h-1.387
			v-5.438c0-1.729-0.936-2.809-2.575-2.809c-1.603,0-2.791,1.17-2.791,2.917V57h-1.387L139.33,47.691L139.33,47.691z"/>
		<path fill="#F7C1B2" d="M154.523,56.01c1.278,0,2.179-0.522,2.935-1.314l0.864,0.774c-0.936,1.044-2.07,1.746-3.835,1.746
			c-2.557,0-4.646-1.962-4.646-4.861c0-2.701,1.891-4.861,4.465-4.861c2.755,0,4.339,2.197,4.339,4.934c0,0.126,0,0.27-0.018,0.486
			h-7.382C151.444,54.875,152.884,56.01,154.523,56.01z M157.242,51.796c-0.162-1.692-1.134-3.133-2.971-3.133
			c-1.602,0-2.827,1.333-3.024,3.133H157.242z"/>
		<path fill="#F7C1B2" d="M160.299,55.812l0.702-0.99c1.008,0.756,2.125,1.188,3.223,1.188c1.117,0,1.927-0.576,1.927-1.477v-0.036
			c0-0.936-1.098-1.296-2.323-1.638c-1.458-0.415-3.079-0.918-3.079-2.629v-0.036c0-1.602,1.333-2.665,3.169-2.665
			c1.135,0,2.395,0.396,3.349,1.026l-0.63,1.044c-0.864-0.558-1.855-0.9-2.755-0.9c-1.099,0-1.801,0.576-1.801,1.351v0.036
			c0,0.882,1.152,1.225,2.395,1.603c1.44,0.432,2.989,0.99,2.989,2.665v0.036c0,1.765-1.458,2.791-3.313,2.791
			C162.82,57.18,161.343,56.658,160.299,55.812z"/>
		<path fill="#F7C1B2" d="M169.083,55.812l0.702-0.99c1.008,0.756,2.125,1.188,3.223,1.188c1.117,0,1.927-0.576,1.927-1.477v-0.036
			c0-0.936-1.098-1.296-2.323-1.638c-1.458-0.415-3.079-0.918-3.079-2.629v-0.036c0-1.602,1.333-2.665,3.169-2.665
			c1.135,0,2.395,0.396,3.349,1.026l-0.63,1.044c-0.864-0.558-1.855-0.9-2.755-0.9c-1.099,0-1.801,0.576-1.801,1.351v0.036
			c0,0.882,1.152,1.225,2.395,1.603c1.44,0.432,2.989,0.99,2.989,2.665v0.036c0,1.765-1.458,2.791-3.313,2.791
			C171.604,57.18,170.127,56.658,169.083,55.812z"/>
		<path fill="#F7C1B2" d="M191.567,55.218c-1.152,1.242-2.484,1.962-4.123,1.962c-2.269,0-3.961-1.422-3.961-3.529v-0.036
			c0-1.675,1.117-2.881,3.043-3.637c-0.864-1.008-1.26-1.783-1.26-2.773v-0.036c0-1.656,1.333-2.989,3.331-2.989
			c1.765,0,3.061,1.278,3.061,2.845v0.036c0,1.603-1.134,2.629-2.971,3.277l2.881,2.935c0.558-0.81,1.062-1.765,1.513-2.809
			l1.17,0.54c-0.558,1.188-1.134,2.269-1.819,3.169l2.197,2.251l-1.081,0.828L191.567,55.218z M190.703,54.335l-3.367-3.475
			c-1.675,0.612-2.413,1.638-2.413,2.701v0.036c0,1.351,1.081,2.377,2.629,2.377C188.741,55.974,189.785,55.344,190.703,54.335z
			 M190.325,47.133v-0.036c0-1.008-0.756-1.747-1.783-1.747c-1.134,0-1.909,0.792-1.909,1.818v0.036
			c0,0.738,0.306,1.296,1.261,2.323C189.497,48.987,190.325,48.213,190.325,47.133z"/>
		<path fill="#F7C1B2" d="M201.825,50.734v-0.036c0-3.565,2.665-6.518,6.374-6.518c2.287,0,3.655,0.81,4.916,1.999l-0.972,1.044
			c-1.062-1.008-2.25-1.729-3.961-1.729c-2.791,0-4.879,2.269-4.879,5.167v0.036c0,2.917,2.107,5.203,4.879,5.203
			c1.729,0,2.863-0.666,4.069-1.818L213.188,55c-1.314,1.333-2.755,2.214-5.042,2.214C204.508,57.216,201.825,54.354,201.825,50.734
			z"/>
		<path fill="#F7C1B2" d="M214.676,52.391v-0.036c0-2.629,2.053-4.861,4.862-4.861c2.791,0,4.843,2.197,4.843,4.825v0.036
			c0,2.629-2.071,4.861-4.879,4.861C216.711,57.216,214.676,55.02,214.676,52.391z M222.959,52.391v-0.036
			c0-1.999-1.495-3.637-3.457-3.637c-2.017,0-3.403,1.638-3.403,3.601v0.036c0,1.999,1.477,3.619,3.439,3.619
			C221.555,55.974,222.959,54.354,222.959,52.391z"/>
		<path fill="#F7C1B2" d="M226.358,55.109h1.657V57h-1.657V55.109z"/>
	</g>
</g>
<rect y="100" fill="#FBE6E0" width="500" height="475"/>
<rect x="50" y="266" fill="#FEF3EF" width="140" height="30"/>
<rect x="210" y="266" fill="#FEF3EF" width="240" height="30"/>
<rect x="50" y="316" fill="#FEF3EF" width="61" height="30"/>
<rect x="130" y="316" fill="#FEF3EF" width="60" height="30"/>
<rect x="210" y="316" fill="#FEF3EF" width="220" height="30"/>
<rect x="368" y="361" fill="#FEF3EF" width="73" height="30"/>
<rect x="288" y="361" fill="#FEF3EF" width="60" height="30"/>
<rect x="50" y="361" fill="#FEF3EF" width="220" height="30"/>
<rect x="290" y="1085" fill="#FBE6E0" width="60" height="30"/>
<rect x="210" y="985" fill="#FBE6E0" width="140" height="30"/>
<rect x="50" y="985" fill="#FBE6E0" width="140" height="30"/>
<rect x="370" y="985" fill="#FBE6E0" width="80" height="30"/>
<rect x="50" y="1035" fill="#FBE6E0" width="220" height="30"/>
<rect x="290" y="1035" fill="#FBE6E0" width="160" height="30"/>
<rect x="50" y="1085" fill="#FBE6E0" width="220" height="30"/>
<rect x="50" y="1155" fill="#FEF3EF" width="220" height="10"/>
<rect x="290" y="1155" fill="#FEF3EF" width="60" height="10"/>
<rect x="210" y="1175" fill="#FEF3EF" width="240" height="10"/>
<rect x="370" y="1155" fill="#FEF3EF" width="65" height="10"/>
<rect x="370" y="1195" fill="#FEF3EF" width="50" height="10"/>
<rect x="50.001" y="1215" fill="#FEF3EF" width="189.999" height="10"/>
<rect x="50.001" y="1175" fill="#FEF3EF" width="140" height="10"/>
<rect x="260" y="1215" fill="#FEF3EF" width="140" height="10"/>
<rect x="50.001" y="1195" fill="#FEF3EF" width="140" height="10"/>
<rect x="210" y="1195" fill="#FEF3EF" width="140" height="10"/>
<g>
	<path fill="#F6B4A2" d="M59.845,160.65h-8.489v-5.659h23.117v5.659h-8.489v22.24h-6.138v-22.24H59.845z"/>
	<path fill="#F6B4A2" d="M80.913,154.991h6.138v11.04H98.37v-11.04h6.138v27.899H98.37v-11.2H87.051v11.2h-6.138V154.991z"/>
	<path fill="#F6B4A2" d="M113.65,154.991h21.044v5.46h-14.946v5.66H132.9v5.46h-13.152v5.858h15.146v5.46H113.65V154.991z"/>
	<path fill="#F6B4A2" d="M155.175,178.825l3.626-4.344c2.511,2.073,5.142,3.388,8.33,3.388c2.511,0,4.025-0.996,4.025-2.63v-0.08
		c0-1.555-0.957-2.352-5.62-3.547c-5.62-1.435-9.247-2.989-9.247-8.529v-0.08c0-5.062,4.065-8.41,9.765-8.41
		c4.065,0,7.533,1.275,10.363,3.547l-3.188,4.623c-2.471-1.714-4.902-2.75-7.254-2.75s-3.587,1.076-3.587,2.431v0.08
		c0,1.833,1.195,2.431,6.018,3.667c5.66,1.475,8.848,3.507,8.848,8.37v0.08c0,5.54-4.225,8.648-10.243,8.648
		C162.787,183.289,158.522,181.814,155.175,178.825z"/>
	<path fill="#F6B4A2" d="M184.919,154.991h6.616l7.333,11.797l7.333-11.797h6.616v27.899h-6.098v-18.214l-7.852,11.917h-0.159
		l-7.772-11.797v18.095h-6.019v-27.9H184.919z"/>
	<path fill="#F6B4A2" d="M231.044,154.792h5.659l11.957,28.099h-6.417l-2.551-6.257h-11.797l-2.551,6.257h-6.257L231.044,154.792z
		 M237.5,171.212l-3.707-9.047l-3.707,9.047H237.5z"/>
	<path fill="#F6B4A2" d="M254.929,154.991h6.138v22.319h13.91v5.58H254.93L254.929,154.991L254.929,154.991z"/>
	<path fill="#F6B4A2" d="M281.378,154.991h6.138v22.319h13.91v5.58h-20.047v-27.899H281.378z"/>
	<path fill="#F6B4A2" d="M51.436,226.646l3.626-4.344c2.511,2.073,5.142,3.388,8.33,3.388c2.511,0,4.025-0.996,4.025-2.63v-0.08
		c0-1.555-0.957-2.352-5.62-3.547c-5.62-1.435-9.247-2.989-9.247-8.529v-0.08c0-5.062,4.065-8.41,9.765-8.41
		c4.065,0,7.533,1.275,10.363,3.547l-3.188,4.623c-2.471-1.714-4.902-2.75-7.254-2.75s-3.587,1.076-3.587,2.431v0.08
		c0,1.833,1.195,2.431,6.018,3.667c5.66,1.475,8.848,3.507,8.848,8.37v0.08c0,5.54-4.225,8.648-10.243,8.648
		C59.048,231.11,54.783,229.635,51.436,226.646z"/>
	<path fill="#F6B4A2" d="M79.438,216.842v-0.08c0-7.931,5.979-14.428,14.547-14.428c5.261,0,8.41,1.754,11,4.305l-3.906,4.503
		c-2.152-1.953-4.344-3.148-7.134-3.148c-4.703,0-8.091,3.906-8.091,8.688v0.08c0,4.783,3.308,8.769,8.091,8.769
		c3.188,0,5.141-1.275,7.333-3.269l3.906,3.946c-2.87,3.069-6.058,4.982-11.438,4.982C85.537,231.189,79.438,224.853,79.438,216.842
		z"/>
	<path fill="#F6B4A2" d="M111.953,202.812h12.754c3.547,0,6.297,0.996,8.13,2.83c1.554,1.554,2.391,3.747,2.391,6.377v0.08
		c0,4.504-2.431,7.333-5.978,8.649l6.815,9.964h-7.174l-5.979-8.928h-4.822v8.928h-6.138L111.953,202.812L111.953,202.812z
		 M124.308,216.363c2.989,0,4.703-1.594,4.703-3.946v-0.08c0-2.63-1.833-3.986-4.823-3.986h-6.098v8.011L124.308,216.363
		L124.308,216.363z"/>
	<path fill="#F6B4A2" d="M143.155,202.812h21.044v5.46h-14.946v5.66h13.152v5.46h-13.152v5.858h15.146v5.46h-21.244L143.155,202.812
		L143.155,202.812z"/>
	<path fill="#F6B4A2" d="M172.482,202.812h21.044v5.46H178.58v5.66h13.152v5.46H178.58v5.858h15.146v5.46h-21.243v-27.898H172.482z"
		/>
	<path fill="#F6B4A2" d="M201.809,202.812h5.659l13.073,17.178v-17.178h6.058v27.899h-5.221l-13.511-17.736v17.736h-6.058V202.812z"
		/>
	<path fill="#F6B4A2" d="M247.636,202.812h6.775l7.294,19.649l7.293-19.649h6.616l-11.279,28.098h-5.42L247.636,202.812z"/>
	<path fill="#F6B4A2" d="M281.884,202.812h21.044v5.46h-14.946v5.66h13.152v5.46h-13.152v5.858h15.146v5.46h-21.244V202.812z"/>
	<path fill="#F6B4A2" d="M311.21,202.812h12.754c3.548,0,6.298,0.996,8.131,2.83c1.555,1.554,2.392,3.747,2.392,6.377v0.08
		c0,4.504-2.432,7.333-5.979,8.649l6.815,9.964h-7.174l-5.979-8.928h-4.823v8.928h-6.138v-27.9H311.21z M323.565,216.363
		c2.989,0,4.703-1.594,4.703-3.946v-0.08c0-2.63-1.833-3.986-4.822-3.986h-6.098v8.011L323.565,216.363L323.565,216.363z"/>
	<path fill="#F6B4A2" d="M340.193,226.646l3.627-4.344c2.511,2.073,5.142,3.388,8.33,3.388c2.511,0,4.025-0.996,4.025-2.63v-0.08
		c0-1.555-0.956-2.352-5.619-3.547c-5.62-1.435-9.247-2.989-9.247-8.529v-0.08c0-5.062,4.065-8.41,9.765-8.41
		c4.065,0,7.533,1.275,10.362,3.547l-3.188,4.623c-2.471-1.714-4.902-2.75-7.254-2.75s-3.587,1.076-3.587,2.431v0.08
		c0,1.833,1.196,2.431,6.019,3.667c5.659,1.475,8.848,3.507,8.848,8.37v0.08c0,5.54-4.225,8.648-10.242,8.648
		C347.806,231.11,343.541,229.635,340.193,226.646z"/>
	<path fill="#F6B4A2" d="M370.051,202.812h6.138v27.899h-6.138V202.812z"/>
	<path fill="#F6B4A2" d="M383.962,216.842v-0.08c0-7.931,6.258-14.428,14.866-14.428c8.609,0,14.787,6.417,14.787,14.348v0.08
		c0,7.932-6.258,14.428-14.867,14.428C390.14,231.189,383.962,224.773,383.962,216.842z M407.198,216.842v-0.08
		c0-4.783-3.508-8.768-8.45-8.768c-4.941,0-8.369,3.906-8.369,8.688v0.08c0,4.783,3.507,8.769,8.449,8.769
		S407.198,221.624,407.198,216.842z"/>
	<path fill="#F6B4A2" d="M420.505,202.812h5.66l13.072,17.178v-17.178h6.059v27.899h-5.222l-13.511-17.736v17.736h-6.059v-27.899
		H420.505z"/>
</g>
<circle fill="#FBE6E0" cx="250" cy="775" r="150"/>
<rect y="1275" fill="#FEF3EF" width="500" height="275"/>
<rect x="50" y="1448" fill="#FFFFFF" width="110" height="10"/>
<rect x="180" y="1448" fill="#FFFFFF" width="60" height="10"/>
<rect x="260" y="1448" fill="#FFFFFF" width="140" height="10"/>
<rect x="290" y="1489" fill="#FFFFFF" width="110" height="10"/>
<rect x="210" y="1489" fill="#FFFFFF" width="60" height="10"/>
<rect x="50" y="1489" fill="#FFFFFF" width="140" height="10"/>
<rect x="50" y="1468" fill="#FFFFFF" width="245" height="10"/>
<rect x="314" y="1468" fill="#FFFFFF" width="137" height="10"/>
<rect x="50" y="1328" fill="#FBE6E0" width="140" height="30"/>
<rect x="210" y="1328" fill="#FBE6E0" width="239" height="30"/>
<rect x="50" y="1378" fill="#FBE6E0" width="140" height="30"/>
<rect x="210" y="1378" fill="#FBE6E0" width="60" height="30"/>
<rect x="290.125" y="1378" fill="#FBE6E0" width="147.875" height="30"/>
<circle fill="#FEF3EF" cx="251" cy="1670" r="70"/>
<rect x="160" y="1767" fill="#FBE6E0" width="180" height="20"/>
<circle fill="#FEF3EF" cx="251" cy="1907" r="70"/>
<rect x="160" y="2004" fill="#FBE6E0" width="180" height="20"/>
<circle fill="#FEF3EF" cx="251" cy="2144" r="70"/>
<rect x="160" y="2241" fill="#FBE6E0" width="180" height="20"/>
<circle fill="#FEF3EF" cx="251" cy="2381" r="70"/>
<rect x="160" y="2478" fill="#FBE6E0" width="180" height="20"/>
<circle fill="#FEF3EF" cx="251" cy="2618" r="70"/>
<rect x="160" y="2715" fill="#FBE6E0" width="180" height="20"/>
<rect y="2832" fill="#FBE6E0" width="500" height="505"/>
<rect y="3297" fill="#F7C1B2" width="500" height="40"/>
<g>
	<rect x="140" y="2877" fill="#FEF3EF" width="140" height="10"/>
	<rect x="300" y="2877" fill="#FEF3EF" width="60" height="10"/>
</g>
<g>
	<rect x="236" y="2897" fill="#FEF3EF" width="109" height="10"/>
	<rect x="155" y="2897" fill="#FEF3EF" width="60" height="10"/>
</g>
<g>
	<rect x="140" y="2917" fill="#FEF3EF" width="220" height="10"/>
</g>
<g>
	<rect x="315" y="2937" fill="#FEF3EF" width="30" height="10"/>
	<rect x="155" y="2937" fill="#FEF3EF" width="140" height="10"/>
</g>
<g>
	<rect x="315" y="3187" fill="#FEF3EF" width="30" height="10"/>
	<rect x="155" y="3187" fill="#FEF3EF" width="140" height="10"/>
</g>
<rect x="142.5" y="3167" fill="#FEF3EF" width="215" height="10"/>
<g>
	<rect x="220" y="3207" fill="#FEF3EF" width="140" height="10"/>
	<rect x="140" y="3207" fill="#FEF3EF" width="60" height="10"/>
</g>
<g>
	<rect x="315" y="3227" fill="#FEF3EF" width="30" height="10"/>
	<rect x="155" y="3227" fill="#FEF3EF" width="140" height="10"/>
</g>
<rect x="20" y="3312" fill="#FEF3EF" width="140" height="10"/>
<rect x="180" y="3312" fill="#FEF3EF" width="60" height="10"/>
<rect x="292" y="3312" fill="#FEF3EF" width="188" height="10"/>
<g>
	<rect x="100" y="3022" fill="#FEF3EF" width="60" height="10"/>
	<rect x="180" y="3022" fill="#FEF3EF" width="60" height="10"/>
	<rect x="260" y="3022" fill="#FEF3EF" width="140" height="10"/>
</g>
<g>
	<rect x="355" y="3042" fill="#FEF3EF" width="30" height="10"/>
	<rect x="115" y="3042" fill="#FEF3EF" width="220" height="10"/>
</g>
<g>
	<rect x="100" y="3062" fill="#FEF3EF" width="140.255" height="10"/>
	<rect x="259.745" y="3062" fill="#FEF3EF" width="140.255" height="10"/>
</g>
<g>
	<rect x="115" y="3082" fill="#FEF3EF" width="60" height="10"/>
	<rect x="195" y="3082" fill="#FEF3EF" width="190" height="10"/>
</g>
<g>
	<path fill="#FFFFFF" d="M350,490c0,19.25-15.75,35-35,35H85c-19.25,0-35-15.75-35-35l0,0c0-19.25,15.75-35,35-35h230
		C334.25,455,350,470.75,350,490L350,490z"/>
</g>
<rect x="130" y="485" fill="#FBE6E0" width="140" height="10"/>
<rect x="430" y="37.5" fill="#F7C1B2" width="40" height="5"/>
<rect x="430" y="47.5" fill="#F7C1B2" width="40" height="5"/>
<rect x="430" y="57.5" fill="#F7C1B2" width="40" height="5"/>
</svg>
